<?xml version="1.0" encoding="UTF-8" standalone="no"?>
<!-- Created with the Eggbot TSP art toolkit (http://egg-bot.com) -->

<svg xmlns="http://www.w3.org/2000/svg"
     xmlns:inkscape="http://www.inkscape.org/namespaces/inkscape"
     xmlns:sodipodi="http://sodipodi.sourceforge.net/DTD/sodipodi-0.dtd"
     xmlns:rdf="http://www.w3.org/1999/02/22-rdf-syntax-ns#"
     xmlns:dc="http://purl.org/dc/elements/1.1/"
     xmlns:cc="http://creativecommons.org/ns#"
     height="800"
     width="3200">
  <sodipodi:namedview
            showgrid="false"
            showborder="true"
            inkscape:showpageshadow="false"/>
  <metadata>
    <rdf:RDF>
      <cc:Work rdf:about="">
        <dc:format>image/svg+xml</dc:format>
        <dc:type rdf:resource="http://purl.org/dc/dcmitype/StillImage" />
        <dc:subject>
          <rdf:Bag>
            <rdf:li>Egg-Bot</rdf:li>
            <rdf:li>Eggbot</rdf:li>
            <rdf:li>TSP</rdf:li>
            <rdf:li>TSP art</rdf:li>
          </rdf:Bag>
        </dc:subject>
        <dc:description>TSP art from sysid (https://sysid.github.io/), inspired by Eggbot TSP art toolkit</dc:description>
      </cc:Work>
    </rdf:RDF>
  </metadata>
  <g      transform="translate(1200, 800) scale(1, -1)">
    <path style="fill:#52678a;stroke:#000000;stroke-width:1"
          d="m 504,521 5,-9 9,-8 8,-10 8,-12 7,-14 6,-17 11,-4 14,0 11,-4 12,1 9,-6 11,0 9,-5 10,-7 7,-9 5,-11 -3,-12 1,-10 -11,-3 -9,-7 -11,-6 -12,-2 -3,-9 -11,5 -12,-2 -13,1 -10,-4 -67,36 -9,13 -15,2 0,-14 10,-4 8,-11 -15,-4 -12,7 -3,15 -62,-6 -6,-14 -9,9 -7,-11 -13,8 7,6 7,9 11,-1 4,10 -15,3 -13,-9 -66,46 2,11 8,9 4,13 6,11 7,9 8,9 11,9 15,11 -8,9 -12,-8 -12,-10 -11,-12 -8,-11 -7,-11 0,-13 -8,2 -6,-13 -3,-14 -11,10 -5,-12 -10,10 -6,-13 -9,10 -7,-14 -7,10 -13,-6 6,-11 -12,-10 -5,13 -9,-10 -6,-14 11,-3 -11,-12 14,-4 -7,-12 17,-1 -4,-11 13,-8 6,10 8,-15 8,10 15,-3 -8,-11 14,-3 12,5 -5,9 15,0 9,-5 -2,-13 -7,5 -8,-7 2,-12 12,4 0,-12 -11,-6 0,-13 11,6 2,-14 -11,-5 1,-12 13,1 4,-15 -13,1 6,-14 14,-1 -7,-13 14,0 9,-11 -14,-3 11,-12 13,3 0,-15 13,5 2,-16 14,6 3,-14 16,5 -1,-15 14,4 9,7 8,-11 9,10 7,-10 10,9 7,-11 10,-9 1,-13 -1,-14 0,-15 -12,6 -13,-5 10,-11 14,-5 -1,-13 -13,1 -12,6 -5,12 -7,10 -11,5 5,11 11,-4 11,2 11,7 1,14 -10,6 -13,-1 9,-12 -13,-1 -14,1 5,12 -14,1 -11,-7 7,-9 7,-10 -14,-2 10,-11 -10,-6 10,-8 12,3 8,-11 4,-12 13,-7 -13,-9 -4,-14 -9,-13 -14,-6 5,16 4,14 5,13 -4,14 -16,3 4,-13 -6,-11 0,-11 -3,-14 -6,-12 -10,11 -7,-12 -7,10 -11,-8 -13,0 -9,10 10,7 12,0 15,4 15,1 -4,12 -16,-1 -14,-1 -14,1 -8,-10 -7,10 -14,0 -6,-11 13,-3 5,-12 7,-10 -16,1 -7,11 -8,-11 -7,10 -10,-9 -15,0 -1,13 13,2 12,7 5,13 -15,-3 -12,-5 -7,10 9,7 -12,6 -12,-3 2,-13 5,-13 -1,-16 -11,9 -5,12 -207,-62 205,75 -1,14 10,6 -11,9 10,6 1,13 -11,-2 1,16 12,11 -12,4 0,14 11,9 -12,7 11,7 -11,10 13,3 8,-7 4,-10 0,-13 -9,-10 9,-10 0,-13 -10,-5 9,-10 -1,-12 -3,-11 9,-3 9,-4 -2,13 1,11 -2,11 3,8 -1,11 -2,11 2,10 0,12 0,13 -9,8 10,5 -2,10 2,11 -9,5 -1,10 10,-3 -1,12 0,11 -12,-1 -2,-9 -7,-11 -5,9 1,10 -13,-2 -8,-7 -6,10 -14,5 2,-9 4,-8 7,-7 9,-5 9,7 5,-11 11,-2 7,-10 -4,-10 -10,10 -4,-11 -9,5 -1,11 -13,-5 -2,10 -9,7 -9,-2 5,-11 -14,5 -12,9 -8,10 -5,10 -6,10 -3,12 14,-6 13,0 -5,-12 6,-10 6,-10 9,8 -7,12 5,11 -5,10 -12,5 -12,-1 3,14 12,1 9,-6 1,15 -3,10 8,7 -14,4 -13,1 5,-10 3,-11 -13,3 -9,-10 3,-11 -10,0 -6,10 -11,3 9,10 11,-1 6,10 1,11 -11,2 -7,-11 -5,11 1,11 -13,-4 -9,-11 11,-4 3,-11 -9,-7 -9,9 -10,11 7,13 -14,1 -5,17 14,-5 13,-2 11,6 -13,8 10,8 4,12 6,10 9,10 9,9 -12,6 -12,3 -5,9 -13,-5 5,-12 15,-5 -10,-9 -7,-11 -6,-11 -7,-12 -10,9 6,16 9,13 -12,4 5,14 -14,-3 -8,9 -6,12 14,-1 14,-1 13,2 -7,14 -13,-3 -12,6 -13,-6 -2,13 9,7 -8,10 14,3 7,-11 8,-8 10,8 -8,10 -9,11 -14,1 8,12 13,-1 -3,13 10,8 12,6 8,-14 -13,-7 -4,-15 7,-10 8,11 10,7 10,3 11,5 -12,9 -8,11 -4,13 -12,1 -14,0 -10,-9 -3,19 12,7 -11,11 13,4 -5,13 11,12 11,10 7,-16 -12,-8 0,-16 -1,-15 13,4 2,16 11,7 2,13 13,-5 12,3 -4,13 -13,1 -14,0 -4,13 14,4 12,-6 2,14 -6,12 10,5 9,-6 3,-10 -6,-11 5,-10 1,-10 5,-8 11,3 9,1 -4,11 -10,-3 -3,11 10,5 -9,6 8,9 -8,9 13,7 -12,7 -12,-1 -15,1 7,12 15,1 -8,10 8,8 9,7 10,6 12,2 12,4 0,-12 -11,-6 -12,-1 -9,-9 4,-13 12,-4 -1,14 13,-7 3,12 12,5 -1,-14 11,2 11,-5 12,2 12,-4 0,13 6,10 6,12 -11,3 -7,-9 -8,-8 -8,-7 -10,6 3,10 -14,2 0,11 13,0 12,-7 9,10 -11,7 7,13 8,-8 10,-9 13,-3 10,6 12,4 2,13 0,12 -12,-3 -13,-5 12,-8 -10,-5 -10,0 -5,9 -8,7 11,7 11,4 10,5 12,2 12,-3 11,4 14,-3 -11,-10 3,-13 -14,5 -1,-14 13,-4 14,-4 2,13 -2,13 11,8 4,-15 0,-14 -1,-13 15,-8 -3,13 14,1 -10,12 8,9 -12,6 1,13 13,-5 -3,15 11,-4 5,12 6,-13 -3,-11 -5,-10 -1,-12 16,11 4,15 10,-7 12,-1 12,-3 1,12 2,13 -15,-5 -12,3 -13,3 2,11 14,1 14,-1 14,-1 13,-6 -3,-12 0,-13 -6,-11 11,-5 8,-10 8,-8 6,-11 11,10 12,6 16,4 -10,8 -14,4 -12,-9 -11,11 -5,13 2,15 11,-8 4,-13 13,10 14,4 -3,-13 13,-6 6,12 -2,11 13,-2 13,1 15,-3 -10,-8 -10,-6 -10,-4 -3,-13 15,-2 10,9 5,-14 9,-11 7,-14 13,1 -5,15 -7,12 -5,11 -8,9 11,7 9,-8 10,-7 -4,-12 13,-1 -4,-14 13,2 5,-10 2,-12 -15,5 -8,-12 -14,-1 4,-14 17,2 9,10 13,-8 8,12 -1,13 -4,13 12,-3 12,-2 12,-5 12,-6 12,-7 8,-12 9,-11 5,-15 -14,4 -12,8 -5,15 -16,6 -15,8 -5,-16 13,-7 13,-3 3,-15 14,-7 14,-6 -11,-9 -14,4 2,-16 -8,-14 12,-3 10,9 3,-12 12,-3 0,14 -9,11 10,6 7,11 13,-9 -9,-10 5,-11 -7,-8 3,-10 11,6 7,11 -4,11 12,1 4,-11 11,-1 8,-12 -12,-1 -12,2 -5,-10 -10,-3 9,-9 3,-11 -3,-12 10,2 10,-5 -2,13 -4,11 -2,11 12,-1 12,0 3,-13 -12,2 2,-12 11,-4 -9,-7 7,-7 -11,-5 -9,0 -11,4 -12,-1 6,-10 -12,-1 5,-12 -12,3 -7,-9 13,-5 11,-7 5,10 2,11 7,8 11,-4 10,6 2,-11 8,-8 7,-10 6,-10 4,-11 1,-12 -10,3 -1,-11 10,-4 0,-11 -3,-11 -7,-9 -6,-10 -10,6 1,12 10,4 3,11 -11,0 1,11 2,12 7,10 -6,10 -4,10 -11,-1 1,11 -12,3 -1,-12 -4,-12 9,-11 5,11 9,-8 -4,-9 -4,-9 -1,-11 3,-10 -10,-1 -6,-9 12,-2 -2,-11 4,-11 11,-3 -8,-10 -13,2 -3,12 -3,11 -8,8 -7,-7 -10,-4 -10,-4 8,-7 9,3 10,3 1,-12 -12,-2 5,-10 11,-1 12,-2 9,-8 10,9 3,-14 -6,-10 6,-11 -10,-3 3,-13 -8,-11 -11,-8 -10,-7 -11,-7 -11,-5 -9,10 5,11 14,0 10,11 12,2 -6,13 12,-2 -2,13 3,11 -9,7 -12,2 4,-15 -8,-13 -7,-11 -12,-4 -14,-4 -2,-12 -14,8 -16,0 2,-12 12,-2 12,-6 10,-9 8,-10 -11,-5 -8,9 -10,5 -10,4 0,-16 12,-3 9,-10 15,0 -5,-13 -14,0 7,-14 -13,1 -1,-14 -13,9 5,15 5,14 -12,0 -9,-13 -4,-13 -12,7 -15,-3 -16,2 -17,0 9,-15 -9,-12 0,-19 14,1 5,14 9,14 18,0 16,-2 12,-8 -18,-6 -17,0 -8,-14 2,-15 3,-15 -12,-2 -13,3 6,15 -17,-3 -2,-19 11,-10 13,-3 13,2 -3,-16 -17,-1 -16,8 0,-16 11,-8 13,1 12,-2 -3,-17 -16,2 -16,5 1,-17 16,-3 16,-5 -1,-17 -16,5 -15,3 2,-16 -16,1 3,-11 7,-10 12,5 9,12 13,-7 -10,-13 -13,-9 -15,-2 -10,11 -6,-12 -7,11 5,12 -4,12 -15,1 5,-12 -4,-12 5,-12 -14,0 -14,0 -5,12 14,1 4,12 -5,11 -14,0 6,-12 -13,0 -7,12 -6,-12 -9,10 -13,0 -13,-8 12,-9 12,-1 16,-4 5,-12 -16,1 -17,0 -12,10 -8,-11 -16,5 10,11 -13,10 -9,-11 -8,14 10,11 15,2 6,-12 8,10 -6,15 0,15 1,13 0,12 0,13 0,13 4,15 -12,-2 -8,11 13,3 12,4 6,-10 12,3 -5,7 -3,8 11,4 5,-11 9,6 -5,11 9,8 6,-12 9,9 -5,13 15,-1 -6,12 15,1 -7,12 15,2 -8,13 14,3 -9,13 14,2 2,14 -13,-1 2,13 12,2 1,14 -13,-3 2,12 -1,12 13,-6 -2,13 12,-3 11,2 12,0 12,6 13,5 11,6 10,7 9,11 2,12 2,12 -4,11 -7,11 -10,9 -11,6 -10,5 -10,-4 -1,9 -11,2 -8,-4 -8,6 -13,0 -11,7 -6,15 -7,12 -8,11 -7,9 -8,7 -7,9 -9,7 -10,5 -9,5 -10,3 -9,7 -11,1 -10,1 -11,1 -12,1 -12,0 -16,-2 -20,-5 -17,-7 12,-8 18,8 18,1 17,0 15,0 13,-2 11,2 5,-8 11,-3 9,-5 11,0 -1,-10 10,0 Z"/>
  </g>
</svg>
