<svg xmlns="http://www.w3.org/2000/svg"
     height="800"
     width="800">
    <g      transform="translate(0, 800) scale(1, -1)">
        <path style="fill:#2A45DF;stroke:#000000;stroke-width:1"
              d="m 9,13 2,38 30,-10 -6,35 -27,14 23,18 -24,21 26,8 -16,21 -12,18 21,11 -18,18 -1,25 21,-6 13,-18 9,-24 -5,-24 22,4 6,-23 -17,-16 5,-29 22,13 23,2 -12,20 14,16 -4,4 -5,4 6,2 1,4 2,4 3,-5 -1,-6 5,1 4,-4 2,-5 -6,2 -3,-5 4,-3 2,-6 4,5 4,4 4,-5 -5,-3 -2,-6 4,-3 2,-5 5,-1 3,4 -4,2 -3,5 4,3 3,-4 5,-3 0,-5 -3,-4 -4,-3 4,-3 4,3 1,4 2,4 3,-3 -1,-5 3,-3 2,4 3,-3 3,-4 4,-2 -2,-3 -5,0 -2,4 -5,0 -3,3 -3,-3 3,-5 5,0 3,-4 0,-7 7,2 -2,5 5,0 2,5 4,-3 4,-3 3,-4 5,-2 3,-4 0,-6 -5,2 -1,4 -5,2 -3,3 -2,4 -3,-3 -2,-4 4,-2 5,-3 2,-5 6,-1 3,-3 5,2 -1,-6 5,-1 5,1 -2,-6 5,-2 1,4 5,0 4,-3 -5,-3 4,-3 5,-2 3,-3 5,-2 5,1 -1,-5 4,-3 1,5 3,-3 4,1 -2,4 4,-1 4,-2 -2,-4 -5,-2 4,-2 5,0 2,-4 5,0 4,1 0,-5 4,1 5,0 0,-4 5,2 1,-4 6,-1 -1,6 5,-2 4,4 -5,2 -5,3 -4,2 1,-5 -4,0 -2,4 -2,3 -2,-5 -3,3 1,3 -4,2 -2,-4 -4,-1 -3,4 5,2 -2,2 -4,1 -3,2 -4,2 -3,1 -3,2 -2,-3 -4,2 2,3 -3,2 -4,1 1,-5 -4,-1 -2,4 -4,2 5,3 -4,2 -4,2 -4,3 -5,0 1,3 -5,2 -5,-2 1,6 -5,3 9,15 4,-2 2,-4 4,3 3,4 4,-3 -3,-3 -3,-3 4,-3 4,-2 4,-3 0,6 -4,2 3,4 4,-1 0,4 -2,4 -3,-2 -4,3 3,2 -3,3 -4,-2 -5,0 0,-5 -4,1 -4,2 3,3 -3,3 -1,4 0,5 -4,2 -3,-3 2,-3 0,-5 3,-3 -2,-5 -3,3 -4,3 1,5 -5,-2 -4,3 -4,3 4,2 4,-3 4,2 -3,3 5,2 4,3 1,4 2,5 4,1 -2,5 0,5 -5,-2 -4,-2 3,-3 -2,-5 -1,-5 -4,-2 -5,-2 0,5 0,5 5,-2 1,5 -4,3 -2,4 5,0 0,5 4,-2 5,2 -1,5 -4,-2 -4,2 -4,-2 -1,-4 -5,0 2,4 -3,2 -3,-3 -1,-5 -1,-4 6,1 2,-5 -5,-1 2,-4 0,-6 1,-4 -4,-3 -4,4 2,6 -2,5 -4,-2 -1,-5 -5,4 -4,4 -2,4 -5,2 2,4 -5,1 -3,4 6,1 -1,4 0,5 5,-4 1,-6 4,2 2,-4 -3,-4 2,-4 3,-3 5,2 -4,5 4,2 2,4 -5,1 3,4 -4,2 -4,0 -2,4 -4,2 0,5 -5,-2 -5,-1 -5,-1 3,-4 2,-4 -5,-2 -3,5 -3,3 -4,4 1,4 4,-2 0,5 -6,2 -3,-4 -2,5 -3,3 -3,4 -3,5 -2,4 -4,4 -3,5 6,1 -2,5 6,-1 -2,5 -5,3 4,3 4,2 3,-4 0,-5 2,-5 5,-2 -4,-4 -5,2 -3,-4 4,-3 4,-2 -2,-4 6,-1 -3,-4 5,-2 5,-2 4,-2 4,-2 -2,-5 5,0 2,4 3,-3 5,2 4,-2 1,-5 3,-4 3,3 -2,5 -1,4 -4,2 -4,2 -4,-1 2,5 1,4 1,4 3,-3 3,3 5,2 0,-4 5,-1 1,-4 -5,0 -5,2 -4,-3 4,-2 3,-2 2,-4 2,-3 3,-3 -3,-1 2,-4 -3,-2 4,-2 2,-4 4,2 -2,3 4,2 4,-1 -2,-4 3,-2 2,2 2,4 4,0 -2,-4 4,-1 3,3 3,2 1,-4 1,-4 2,-4 4,-3 -1,-6 2,-5 4,-2 1,5 -2,4 2,5 5,1 3,4 -1,4 -3,3 -4,2 -2,-5 4,-3 -4,-2 -4,1 -1,4 2,5 -5,-1 1,4 3,2 5,0 4,-2 5,0 1,-4 4,2 4,-1 -1,-4 -4,-1 3,-4 4,1 0,-4 -3,-3 -3,-2 -2,4 -3,-4 -4,-2 2,-5 -2,-4 2,-5 -3,-4 -5,-1 2,5 -5,1 -6,-1 -1,-5 5,1 1,-5 -2,-4 2,-5 3,3 2,-4 4,1 -2,4 -2,4 3,1 5,1 2,4 4,0 -1,-4 -2,-4 -4,-1 2,-4 4,1 -1,-4 2,-4 3,3 0,4 -1,4 2,2 0,4 4,-2 3,-2 -3,-4 3,-4 -4,-2 -2,-4 1,-4 1,-4 5,-3 -4,-2 -3,-2 4,-3 -5,-2 0,-5 4,2 1,-5 4,-2 5,-2 3,4 -4,2 -4,2 3,4 -2,4 3,3 3,-4 2,-5 3,-3 4,3 -3,4 -3,5 1,5 -4,-1 -5,2 0,4 -4,-2 -1,5 4,2 2,4 -2,4 2,5 3,-4 5,-1 5,-1 3,3 2,-5 4,3 2,-5 3,3 -1,4 -1,4 -5,-1 -1,5 -4,-2 -4,-3 -5,1 4,4 2,4 4,-1 2,4 -3,1 2,4 4,2 4,2 4,-2 4,-2 4,-1 4,0 5,-2 0,4 4,-1 -2,5 3,3 3,-4 2,-5 -2,-3 -4,-2 3,-4 -3,-3 -5,0 1,4 -4,2 -4,1 -1,-4 3,-2 2,-5 5,-1 1,-5 -4,0 -5,2 -2,4 -3,3 -2,5 2,4 -4,1 -4,-1 0,4 -4,-2 0,-5 2,-3 4,2 1,-4 1,-4 3,-4 -1,-4 4,0 -1,-5 -6,0 1,-5 4,0 2,-5 -5,-1 1,-5 5,-2 4,-4 2,-5 3,-4 -2,-4 -4,3 -4,-2 2,-4 0,-6 -5,1 -1,5 -4,-2 -4,3 2,4 -2,4 5,2 2,-5 4,4 2,4 -4,1 -5,2 -5,-2 -1,5 -2,5 6,-2 -1,5 0,6 -5,3 0,-5 -5,2 0,5 -5,1 -5,2 -1,-5 1,-5 4,2 3,-4 4,-2 -3,-4 3,-4 2,-4 1,-5 1,-6 -3,-5 -2,4 0,4 -5,-2 -3,-2 0,-4 4,1 2,-4 5,-2 4,3 2,-5 5,-1 4,-2 5,-3 5,-2 -1,5 3,4 -2,4 5,1 2,-4 4,-1 -1,-5 -5,1 0,-4 1,-4 4,2 4,-4 6,-2 4,3 2,-5 5,2 -2,5 3,4 2,-4 2,-5 -1,-4 6,-1 1,5 5,-2 1,-5 5,4 1,-5 5,-1 -1,5 1,4 -3,1 0,5 5,-1 2,-5 1,-5 0,-5 4,1 4,-2 2,5 -4,2 -2,4 -2,4 5,2 2,-5 4,-3 2,-4 -2,-5 4,-2 2,4 1,3 -1,4 5,-2 2,3 1,4 -5,-1 1,4 -1,4 4,-1 3,3 -4,2 -1,4 2,4 -4,-1 0,3 1,3 -1,4 -3,1 -4,2 -5,-1 -2,-4 -2,-4 2,-3 -5,-1 -5,0 1,4 -5,3 -2,-5 2,-4 3,-3 5,-1 4,2 5,1 3,4 -3,4 3,3 4,-2 0,-4 1,-4 1,-4 -4,2 -2,-3 3,-3 1,-5 -2,-4 -4,2 0,5 -3,4 -3,-2 -4,-2 -4,2 -4,0 -3,4 -2,-4 -3,3 -5,1 -2,-4 4,-1 3,-3 1,-5 -4,0 -3,4 -5,-1 0,5 -3,2 -2,5 5,-1 -2,5 5,-1 -2,4 2,4 4,-3 1,-5 5,-1 -1,5 1,4 -5,2 -4,3 -2,4 -4,-4 -1,5 -4,-2 -5,-3 -3,-3 -5,-2 3,-3 4,-3 2,5 4,3 5,-2 -3,-3 -3,-3 -2,-4 2,-4 -4,-2 -3,-4 -5,-2 -4,2 1,5 4,0 4,3 -3,3 -5,0 0,5 -5,-2 -4,4 4,2 4,3 -4,3 -5,-1 -3,5 5,1 2,6 2,4 3,-4 -2,-5 3,-3 4,-3 3,3 4,2 5,2 2,4 4,-2 -1,5 3,3 2,-5 2,-4 3,-4 3,-4 5,-1 5,1 3,-3 4,-2 2,4 -4,3 2,5 4,-3 5,0 -1,4 -3,2 -3,2 -3,3 -5,1 -4,-1 -2,5 5,1 -3,4 4,1 4,-2 1,-4 4,-3 4,-2 4,-3 2,-4 3,3 2,-4 -3,-3 4,-2 4,-1 1,-5 3,2 3,3 2,-4 2,3 3,-2 -1,-4 -4,-2 -4,2 -3,-3 4,-1 -1,-4 -2,-3 4,-3 2,3 2,5 4,2 3,-2 -4,-3 0,-5 -3,-3 3,-3 -4,-2 -3,3 -3,-2 2,-4 -1,-4 2,-5 -3,-3 -2,4 -3,-4 -2,-4 5,-1 4,0 1,3 4,1 1,-4 3,3 2,-4 3,3 3,-3 2,3 4,-3 6,0 2,5 -5,1 -5,1 2,4 2,4 4,1 0,-5 5,-2 2,-4 -2,-5 5,0 4,0 -2,5 -1,5 -5,4 5,2 5,1 4,-2 -4,-3 0,-4 4,2 4,2 4,-3 1,-4 -4,2 -4,-2 -4,-2 3,-3 5,1 4,0 4,1 4,1 4,1 -3,5 -4,-2 -1,4 3,3 4,2 2,-4 2,-4 2,-5 4,0 -1,5 0,4 -2,3 2,5 -3,3 -2,-4 -3,4 -4,-3 -5,0 -1,-4 -3,-2 -3,3 2,4 -2,4 4,0 4,0 4,1 -2,4 -1,5 -2,4 -4,-3 2,-5 -6,0 -2,5 -5,0 -4,3 -4,0 2,-6 -5,1 -4,-3 3,-3 5,-1 5,0 3,4 2,-5 2,-5 -5,1 -5,-1 -5,1 -2,-3 -3,4 -3,4 -5,-2 2,-5 -5,0 0,-4 -2,-5 -3,-3 -4,-1 -4,1 -1,4 -3,3 4,2 3,-3 1,-3 3,4 -3,4 4,1 2,4 -5,0 2,4 -2,4 5,0 3,-3 4,1 2,4 3,3 3,3 -4,3 -2,4 -4,-3 -3,-3 5,-2 -3,-4 -4,2 -2,4 -3,3 5,2 -4,3 4,2 4,-2 3,4 0,5 4,2 -5,3 0,5 4,2 2,-5 4,3 3,-5 -2,-4 -3,-4 -2,-4 2,-4 4,3 0,-6 4,1 4,0 -2,6 -3,4 3,4 2,5 5,0 -1,-5 -2,-5 2,-5 4,3 2,5 0,4 1,5 4,2 -1,4 2,4 -3,3 -2,3 -3,-3 2,-4 -1,-4 -2,-3 -4,1 2,5 -1,5 -3,4 -1,5 -3,4 -4,-1 2,-4 1,-5 1,-4 4,-2 -2,-4 -3,-4 -2,5 -2,5 -3,-4 -2,5 -4,-3 -4,2 -1,-5 -4,-3 -4,3 3,3 1,4 4,3 4,-1 5,2 4,-1 -1,4 -3,3 -3,-3 -4,0 -4,1 -2,4 -2,-4 2,-3 -4,-2 -2,-5 -5,-1 -3,-3 4,-2 -4,-3 4,-2 4,2 2,-3 4,-2 2,-4 -1,-4 -4,4 -4,2 0,-5 3,-3 -4,-2 -5,2 1,4 -1,5 -3,-3 -2,-4 -2,-4 -3,3 2,5 -5,1 3,4 5,0 -2,4 2,4 1,4 2,4 5,1 2,4 2,3 2,4 -2,4 -4,2 -4,0 2,-4 4,-2 -4,-3 0,-5 -4,1 -4,-1 1,5 2,4 -3,4 -2,-4 -2,-5 -5,-2 1,-6 4,3 2,-4 0,-5 -5,1 -5,1 -2,5 0,5 2,5 5,1 2,5 -4,0 -4,1 -3,-3 -2,4 3,4 -2,5 -2,5 -4,2 3,3 5,-2 4,-1 -2,-4 2,-4 2,-5 6,0 -2,4 -2,5 4,1 3,-3 1,-4 2,-4 4,2 5,0 3,-3 4,0 0,-4 4,-1 2,-4 4,0 -1,5 3,-1 4,-1 4,2 3,2 0,5 -4,-2 -4,-2 -5,2 -5,-1 -1,5 -5,0 -2,3 2,5 5,-2 6,1 -1,-5 5,-2 2,6 3,-4 4,3 3,3 -2,5 -5,-2 -6,1 -6,0 -6,0 -6,1 -5,1 -4,-1 3,-4 4,-2 -2,-4 -4,1 -3,4 -4,3 1,4 -4,0 -2,-4 -2,5 -4,-1 -4,2 -4,1 -4,1 -4,1 2,-5 -4,-2 -2,4 -2,4 -5,2 -5,2 0,-5 2,-4 4,1 3,-4 -5,-1 -4,-2 -3,3 0,4 -3,4 1,5 -5,-2 -3,-2 -2,4 4,3 -5,2 -5,1 -3,3 -5,1 2,-4 1,-4 3,-5 3,4 2,-4 -3,-3 -1,-4 -4,2 -5,2 3,3 -3,3 -4,-2 -2,3 -4,0 -3,3 -3,1 0,-4 -1,-5 4,1 4,-1 4,-3 2,-5 4,1 4,-2 4,-2 3,-2 2,4 1,4 5,1 3,-3 -4,-2 -2,-4 4,-2 3,3 3,-3 -2,-4 -4,-1 -3,2 -4,2 -1,-4 0,-4 4,1 -1,-4 4,-1 2,3 4,2 3,1 1,4 4,2 4,2 5,0 4,1 0,-4 2,-4 3,4 2,-5 -2,-4 -5,1 -4,0 0,5 -5,1 1,-4 -5,1 1,-4 4,-2 -4,-2 -3,-3 -4,2 2,4 -4,-1 -3,-3 1,-3 0,-4 4,2 4,-2 -4,-3 2,-4 4,3 3,-3 2,4 -3,4 2,4 5,2 -1,-5 5,2 1,4 5,-2 -2,-5 5,0 -1,-5 -1,-4 3,-4 2,-5 6,-2 5,0 -2,-4 -4,-2 -4,2 -4,2 -3,4 -2,5 -5,1 2,4 2,4 -5,1 -2,-4 -2,-4 -5,-2 -4,2 -1,-4 3,-3 -2,-4 1,-4 2,-4 5,-2 5,1 -1,-5 -5,-1 -4,-2 -2,4 -3,4 -2,4 0,4 0,4 -5,-1 2,4 2,4 -3,3 -1,4 -4,-2 0,-4 2,-4 -3,-3 -5,-2 4,-3 -4,-3 -3,-5 -4,-2 -5,-2 1,7 4,1 2,5 -4,1 -5,-2 -4,3 -4,-2 -4,2 1,-6 -2,-5 -4,-2 -2,4 2,5 -4,4 4,2 -2,4 6,0 5,-2 1,5 4,-2 5,1 -1,-5 5,2 4,-1 5,2 -1,5 -4,-1 -6,2 3,4 4,1 5,-1 4,3 1,4 -5,2 -1,-4 -4,2 -4,-2 -4,1 -2,-4 -3,-5 -5,2 2,4 3,4 0,5 5,-1 4,0 5,1 -2,3 -4,2 -4,-1 -2,5 5,1 4,-2 1,4 -3,3 -5,2 -1,-4 -4,2 -3,3 -2,5 -3,-4 -4,2 2,4 -6,-1 -2,3 -4,-2 -1,4 4,2 3,3 -4,2 -3,-2 -5,2 -1,5 4,2 1,-4 4,2 4,-2 0,5 -4,2 4,3 4,-2 4,-2 -3,-3 4,-2 4,-2 4,-2 3,2 -3,3 -4,2 4,3 -4,2 -5,2 -4,3 -5,2 -3,-4 -2,4 0,5 -5,-2 -1,5 -4,2 -3,3 -5,2 -2,3 -5,-2 1,5 -3,4 -4,2 -4,-1 1,5 -5,-2 -2,-4 -4,3 -4,-2 0,5 1,5 3,-3 4,0 3,3 -4,2 -2,4 -3,4 -2,-5 -4,-1 -1,-5 -5,-1 1,5 2,5 4,2 0,4 -4,0 1,5 -4,4 -2,-5 -2,-4 3,-2 -2,-4 -2,-5 -1,-4 1,-4 -1,-4 -2,-3 -4,2 1,-5 1,-5 4,1 2,4 3,-3 4,0 -1,4 -3,3 1,4 5,1 0,-4 2,-5 1,-4 4,-1 -1,4 4,1 2,-5 -1,-4 -1,-4 0,-3 3,-2 3,-4 4,1 -3,4 -2,4 2,5 1,4 -3,3 4,2 5,-2 -1,-5 -2,-5 1,-5 5,1 -1,5 6,0 1,-6 -3,-4 -5,0 0,-5 2,-4 3,3 5,2 5,1 -3,4 1,6 4,-3 3,-4 1,-5 4,2 1,-4 -4,-3 -5,1 -5,0 -5,-2 -3,-4 3,-2 5,2 4,1 2,-4 -4,-2 -4,-2 1,-5 4,1 4,3 1,-4 4,2 0,-5 1,-4 5,-2 -2,-4 4,-2 2,4 4,-3 -2,-4 -5,-2 -4,2 -4,2 0,5 -4,2 0,4 -5,0 -4,-1 -3,-3 -1,-4 4,1 4,2 4,-4 -3,-2 -4,-2 -4,0 -4,0 -1,-3 4,-1 -2,-4 -4,1 -3,-3 4,-2 -2,-4 -4,-1 -2,4 -3,-4 -5,1 2,4 2,3 4,2 3,3 -1,5 4,-1 2,4 -4,1 -4,2 -2,-4 -1,-5 -5,0 1,-4 -4,-3 0,-4 -5,2 -2,4 1,6 4,-3 1,5 5,2 2,3 1,4 0,4 1,4 -5,-1 1,4 0,4 4,-2 4,-2 2,-4 -2,-4 5,1 -1,-4 4,-1 2,4 2,5 -4,0 2,5 -5,-1 1,5 -4,-2 -3,2 3,3 3,2 -3,3 -2,4 -4,-2 1,-5 -2,-4 -4,1 -4,-3 -4,1 -1,4 -4,-2 -4,0 -4,2 0,4 2,3 2,-4 4,0 -1,4 4,0 2,-3 4,1 0,-4 5,2 -1,4 2,3 -3,3 -4,-3 -1,3 -3,-1 -4,0 -4,-1 -3,0 -2,4 -4,1 -1,5 4,-1 4,-2 3,-2 4,0 4,1 4,0 -1,3 1,4 -4,1 -2,3 -3,-3 3,-4 -4,-1 -4,2 0,4 -4,-1 -4,0 -4,1 -1,-4 -4,2 -5,-2 -4,-3 5,-2 4,2 0,-4 4,2 1,-5 4,-1 2,-3 -2,-4 0,-4 -4,-2 0,4 0,5 -3,3 -2,-3 1,-4 -1,-4 1,-4 -4,-2 -1,4 0,5 -5,2 -4,-2 0,4 4,3 4,-2 1,4 -4,3 -5,1 -5,-1 -1,-4 4,0 -2,-4 -1,-4 -3,-2 4,-2 4,-1 4,2 2,-4 -3,-1 -4,-1 -3,1 -4,1 -3,-2 0,4 -2,4 -3,3 -1,4 4,-2 4,-1 -2,4 1,5 -1,5 -5,2 -2,5 3,3 -4,3 -2,4 2,5 -5,2 4,4 5,-2 1,-5 0,-5 5,3 4,-3 2,-6 -6,1 -2,-5 5,-1 1,-5 4,1 2,5 4,1 5,2 4,2 4,2 -2,4 1,6 5,3 -5,4 5,2 1,5 3,4 -4,2 0,5 4,-1 1,5 -5,2 2,4 6,-1 -2,4 -3,3 -4,-1 -2,-4 -3,-3 1,-4 0,-4 0,-5 0,-6 -4,3 -4,-3 3,-4 0,-6 -4,2 -3,4 -6,0 2,-6 5,-4 5,-2 -1,-6 -4,2 -2,-5 -4,3 0,5 -4,3 -5,2 4,4 -2,5 -3,-3 -5,0 -4,3 5,3 -5,3 4,3 5,3 1,-6 5,-1 5,-1 3,2 3,4 5,2 0,5 -4,-2 -5,0 -2,-5 -5,0 1,5 -4,2 -1,5 5,-1 4,-1 1,4 4,-4 5,2 2,4 -5,0 -3,4 2,4 1,4 -1,4 -4,1 -4,2 -4,1 -4,-2 -1,4 -3,-3 -2,-4 4,-1 -2,-4 5,-1 2,4 4,2 0,-4 5,1 -1,-5 -2,-4 -4,-2 0,5 -4,-2 -5,1 2,-4 -2,-4 -4,-3 5,-2 -3,-3 -5,-2 -2,5 1,5 4,3 -5,2 4,3 1,3 -1,4 -3,-3 -2,4 -3,-2 -4,2 -3,-4 4,-2 4,-1 -2,-4 0,-5 -2,-3 -3,-4 6,-1 -3,-4 5,-2 0,-6 -4,2 -5,2 -2,5 -2,4 2,5 2,3 1,5 -5,1 -2,-5 -2,-5 -5,-1 1,5 1,5 2,5 4,2 3,4 -1,5 -1,4 -4,2 -5,-2 -5,-2 1,5 -5,-1 -2,-5 -3,4 -3,-4 -2,5 -1,5 5,-1 5,2 2,5 1,4 -4,-1 -3,-4 -5,0 2,4 3,4 4,1 -2,4 -2,3 4,2 -4,2 -2,3 -4,1 0,-4 -4,-2 -3,-3 -2,-4 4,-1 3,4 4,2 1,-4 -3,-3 -2,-4 -2,-4 -2,-4 -2,4 1,4 -5,2 -1,-4 -4,2 2,4 2,4 -4,2 -2,-4 -3,-4 -3,-3 -4,0 -4,-2 -5,-1 2,-4 5,-2 2,4 4,0 -1,-5 5,2 1,5 4,-2 5,-2 -4,-3 -3,-2 4,-3 5,-2 0,5 5,0 -1,-4 2,-4 -6,-2 -5,2 0,-5 -5,-2 -2,-4 4,0 4,1 5,2 4,2 1,-4 5,1 -1,5 4,0 5,-1 -3,-4 4,-5 3,5 1,5 5,2 5,2 0,-5 -5,-2 -2,-5 -2,-5 0,-5 -4,2 -1,-5 4,-2 0,-4 5,0 4,2 2,-4 2,-4 2,-4 4,-3 4,-2 4,-2 -4,-3 -5,2 -4,3 -1,-5 4,-3 2,-5 3,3 2,-4 1,-6 3,-4 -2,-4 -4,-1 -1,5 -2,5 -3,-4 1,-5 -3,-4 -2,4 -5,2 -4,-2 2,-4 4,0 0,-6 4,1 0,-4 -3,-3 -4,2 -2,5 -3,-4 -4,3 3,5 -5,1 -4,3 2,4 5,-2 -1,5 5,-1 -2,4 -4,3 -5,2 -2,5 3,4 -5,2 -3,3 -4,3 -3,3 5,2 -3,3 -2,3 4,2 3,-3 3,-3 -2,-5 4,-1 3,-4 4,1 -2,4 4,1 4,-1 -1,-4 2,-4 -2,-4 -4,3 -2,-6 4,-3 5,-2 2,-5 5,-2 3,3 -4,3 4,2 -2,4 -4,-1 -4,1 3,4 2,5 -3,3 4,3 -4,2 1,3 -5,0 -6,1 -4,-1 -2,4 5,2 -4,3 -5,-2 0,5 5,2 1,4 -2,4 -5,-1 2,-4 -5,-1 -1,-5 -4,2 -1,-4 -4,1 0,-5 1,-5 -2,-4 2,-4 4,-3 -5,-2 -3,-2 -2,-4 3,-4 -3,-4 -3,4 -3,5 3,3 2,5 1,4 0,5 0,5 0,5 1,5 4,1 4,3 4,2 -3,3 -5,-2 -5,-2 -5,1 1,-5 -5,0 -5,-2 3,-4 5,1 1,-5 -5,-2 4,-3 0,-5 0,-5 -3,-3 -2,5 -1,5 -3,4 -2,6 -3,5 3,5 4,3 4,3 2,5 1,4 5,2 0,5 -4,3 -2,-5 -3,4 -4,1 -4,2 0,-5 5,-3 2,-4 -2,-5 -5,-4 -5,-4 -1,5 5,4 2,5 -5,2 -1,-4 -4,-2 -1,5 -2,5 -2,4 4,2 3,-5 2,4 -1,5 -4,3 -5,-4 -1,5 -2,4 -2,5 4,3 2,-5 4,-2 4,-2 5,3 -4,3 -5,2 4,3 -4,3 -4,-1 -4,1 -3,-3 -2,6 4,1 4,0 4,2 4,-2 4,-2 2,-4 3,-4 2,-4 5,1 3,3 1,4 -4,3 -2,-5 -3,5 -4,5 5,2 4,-2 4,-2 4,-2 4,1 3,-3 4,2 -3,2 3,3 4,-2 -1,4 4,1 4,0 4,2 0,-4 3,-3 1,4 4,-2 4,1 2,-4 -4,-1 -4,0 2,-4 -3,-3 3,-4 2,4 3,3 5,2 4,-1 -5,-4 5,-2 1,-4 -5,0 -5,2 -2,-4 4,-2 5,-1 1,-4 -5,0 -5,1 -3,-4 5,-2 5,1 4,-1 4,-2 2,-5 0,-4 5,-1 0,5 -1,4 4,3 2,-5 -1,-4 2,-3 3,3 2,4 -3,4 4,1 4,-2 3,2 1,-4 4,-1 -1,4 2,4 4,-2 -2,-4 4,0 -2,-4 3,-1 4,2 1,-4 1,-4 1,-5 -2,-5 5,-1 1,4 5,0 -2,4 -3,3 -1,4 -2,3 -1,4 -4,1 -2,4 3,0 -2,4 -5,0 2,5 -4,0 -3,-3 -4,-3 -5,-2 -1,5 5,2 -2,4 -6,-2 -2,-4 0,-4 -5,2 1,5 -4,3 -2,-5 0,-5 -2,-3 -3,3 -1,5 2,5 -1,5 5,0 0,5 -4,0 -3,4 -4,1 -4,1 0,4 2,5 4,-1 -1,-4 4,-1 3,4 2,-4 0,-4 5,-2 0,5 4,-2 4,3 4,-3 -4,-2 -2,-5 -5,-1 2,-5 5,0 4,3 0,5 5,-2 1,-5 2,-4 5,2 -2,5 -1,5 -5,2 4,3 -2,5 -3,-3 -4,3 3,2 2,4 -2,5 -1,5 -4,-2 -4,-3 3,-3 3,-2 -4,-3 -4,2 0,-5 -5,2 1,5 -5,-1 -4,0 -4,1 -4,1 2,6 3,-2 4,-1 -1,5 -1,5 -4,-1 -4,-2 -2,-4 -5,1 2,4 2,4 1,5 -5,1 -1,-4 -2,-5 -3,-2 1,-5 3,-3 4,-1 1,-4 0,-4 -5,-1 -4,2 4,3 -4,1 -2,4 -1,4 -4,-1 -3,2 -1,-4 4,-2 2,-4 -4,-3 -1,4 -4,2 -4,2 -3,-2 0,-4 4,2 3,-3 -4,-1 -3,-3 -4,2 -1,-4 -4,-2 -4,3 -5,2 -4,2 -4,-3 -4,3 -2,-5 -5,2 2,4 -3,5 -2,5 -5,-2 1,-4 3,-4 -1,-5 -5,-2 -4,1 4,5 -5,1 3,4 -5,2 4,4 -4,2 -1,6 5,-2 5,-2 -1,5 6,-2 -2,5 -4,3 4,3 -4,2 -3,4 -2,-5 0,-6 -5,1 -1,5 3,4 -4,3 5,2 4,2 4,-2 2,-4 4,-2 0,4 -1,4 1,4 1,4 3,2 -2,4 -5,-2 -1,-5 -1,-4 -4,2 -5,-2 -5,-1 0,5 -1,5 5,0 2,-4 5,1 -2,4 -2,4 -2,4 -2,-4 -4,0 1,4 -2,4 1,4 4,-3 4,0 3,-3 1,-4 3,-4 3,3 -2,5 5,-1 5,2 3,3 1,5 -2,3 5,2 -3,3 -1,4 -4,0 0,-4 -4,2 -2,4 4,3 4,-1 4,1 2,4 3,4 2,4 -5,1 -2,-5 -3,-4 -2,4 2,4 1,4 -2,4 -2,4 -1,5 -2,4 -4,2 4,3 3,2 4,3 4,-2 -3,-4 -3,-3 2,-5 4,3 1,-5 -3,-3 2,-5 4,-2 4,3 2,5 -6,-2 2,6 1,5 -4,3 2,5 3,3 1,4 3,2 4,2 4,-3 -4,-3 -4,-2 -2,-5 3,-4 -1,-5 2,-3 2,-4 0,-4 -3,-2 -4,-3 3,-3 -3,-4 -3,-4 -2,-4 -3,-4 2,-4 3,-3 4,0 4,-2 -2,-2 -4,0 -4,0 -3,-2 0,-4 4,1 4,0 4,1 3,2 2,3 3,3 4,3 -4,1 -3,-2 -4,1 -2,3 -4,-2 -1,4 2,4 4,-2 0,5 2,4 4,-3 -1,-4 -1,-5 5,2 2,4 5,3 0,-5 -2,-3 4,-2 -1,-4 5,1 4,3 -1,5 -4,-2 0,5 0,5 4,-2 1,5 -5,2 -5,-2 -5,2 0,-5 -4,2 -3,4 3,2 1,5 4,-2 0,5 4,-2 0,-6 3,2 5,-1 -2,5 -2,4 -4,3 3,3 -5,3 -5,-1 2,-4 -4,-3 -2,4 0,5 -2,5 5,3 1,-5 5,2 5,-3 3,3 5,-1 2,-4 -5,-1 4,-4 -4,-2 2,-4 4,2 3,-3 -4,-3 4,-2 -4,-3 3,-2 3,1 4,-1 -1,5 0,4 -1,4 -3,3 0,5 4,-1 2,-4 4,0 -1,4 4,1 1,-4 3,3 1,-3 4,2 4,-2 3,-3 -4,-1 -4,1 -1,-4 4,-2 4,1 -1,-4 5,-1 4,-1 -3,-4 -4,1 0,-5 -5,1 -1,-4 4,-2 0,-5 -6,-1 1,4 -5,0 1,6 1,5 5,2 -2,3 -4,1 -2,4 0,4 -4,-1 -4,0 1,-4 0,-4 4,2 1,-4 -4,-2 3,-3 -5,-2 -1,-4 5,1 -1,-5 2,-4 4,-3 -3,-3 -4,0 -3,-5 -2,5 -3,2 0,5 5,-2 0,4 -4,2 -4,0 2,5 1,3 -5,0 -1,-4 -2,-4 2,-4 1,-5 -3,-3 2,-4 5,1 -2,-5 5,0 -1,-4 4,-1 3,4 5,-1 -2,5 5,2 2,-5 1,-5 -4,-3 -5,1 1,-5 2,-5 -4,-2 -1,4 -2,4 -3,2 -2,-5 -3,-4 -4,1 -1,-4 -3,-3 -4,1 -4,-2 -1,5 4,1 4,1 2,4 2,5 3,-4 2,4 -2,4 -3,1 -2,4 -2,4 -4,2 -3,-2 -4,0 -3,0 -3,-2 3,-2 4,-1 4,-1 3,3 1,-4 -2,-4 4,1 -1,-4 -2,-4 -4,-1 0,4 -2,5 -3,-4 0,-5 -3,-2 -2,4 1,4 2,4 -4,2 -2,-4 -2,3 -3,-3 2,-3 1,-4 2,-4 -1,-4 -4,-2 -4,-1 -4,0 -1,5 1,4 4,-4 4,1 -2,4 -2,4 0,5 -4,-1 -2,-4 -3,3 -4,-3 -4,-2 2,-4 5,2 0,-4 1,-5 -4,1 -4,-3 5,-2 -2,-4 -4,1 1,-5 2,-4 -4,-2 -2,-4 2,-4 2,-4 -2,-4 2,-4 2,-5 6,-1 -2,5 6,-1 4,-4 4,-3 5,-2 0,5 4,-1 0,4 -4,2 -4,-2 -4,3 -1,5 5,-2 0,5 -5,2 -1,5 -4,-2 -1,-5 0,-5 -5,2 0,6 -3,5 5,0 -1,4 -1,5 3,4 2,4 6,-1 4,0 -1,-5 -4,-3 -2,4 -3,-4 2,-5 5,1 5,0 -1,-5 4,-3 2,4 0,5 -2,4 -1,5 2,5 4,1 -1,4 4,1 2,-4 -1,-4 0,-5 -5,2 1,-5 2,-5 4,3 2,-5 -2,-5 -4,2 -1,-4 0,-5 -5,1 1,-4 5,-2 4,2 4,-2 0,4 -4,3 4,2 4,-2 5,-2 3,4 3,4 -2,4 -4,-2 -2,-4 -5,2 2,4 -2,4 2,6 -5,-1 0,4 4,2 4,0 5,-3 -3,-3 -1,-5 4,2 5,2 0,-5 5,2 4,-3 2,4 2,3 -5,0 -4,3 -4,1 -1,4 -5,1 3,3 4,1 3,4 2,-5 -2,-4 4,-1 3,-3 2,4 -2,4 5,1 2,-5 -2,-4 4,-1 -2,-5 -3,-3 0,-5 -1,-4 5,1 2,6 3,-4 0,-6 2,-5 -1,-5 5,0 3,4 -3,5 -1,5 0,5 5,-2 1,-4 2,-5 5,0 -1,5 -2,4 0,5 0,5 -1,5 -5,-2 2,-4 -2,-4 -3,4 -4,-3 -3,3 3,4 4,3 4,2 4,3 -3,2 -2,4 4,0 -1,5 0,6 0,5 1,6 -6,2 2,-4 -4,-2 1,-4 1,-5 -1,-4 -2,-5 2,-5 -3,-4 -4,-1 -2,5 4,1 -2,4 -4,1 -3,4 4,2 5,-2 0,5 -1,6 1,5 0,4 -4,-2 -1,5 4,2 4,-1 4,2 4,-3 1,5 -1,5 -5,-2 0,4 2,4 5,-1 -1,5 2,4 0,5 1,5 -5,-2 -4,-1 1,5 5,2 4,1 1,4 -5,1 3,2 4,2 -3,4 5,1 -2,4 -4,0 -1,5 -4,3 -4,1 3,4 4,2 -3,3 3,2 -1,4 5,0 -1,4 -4,2 0,5 -4,-2 -2,4 2,4 6,-1 -1,4 -4,2 -4,0 -2,-4 -2,-4 1,-5 -4,2 -2,-4 -5,-2 -1,-5 -5,0 -5,0 0,5 5,0 -2,5 -5,1 3,4 -3,3 -4,-4 -3,-4 3,-4 1,-5 -4,0 0,-5 5,-1 -3,-5 -5,0 -5,-2 3,-4 5,1 2,-4 3,4 3,5 3,4 2,-4 -2,-5 5,0 2,5 -2,5 5,0 2,-4 4,1 -1,5 -1,4 4,3 2,-3 2,4 4,-2 -1,-5 -1,-4 -4,2 0,-4 3,-3 -4,-2 -4,0 -5,-2 -2,-4 -2,-5 0,-5 4,-2 1,4 3,-4 4,-2 4,0 -1,3 -1,4 -4,-2 -1,4 -3,2 3,4 5,0 -1,-4 4,0 3,3 2,-4 -3,-4 4,-1 1,-4 -4,0 -1,-4 1,-4 -4,-1 -2,4 -3,-1 -3,2 -3,1 -4,1 -4,1 -4,-2 -1,4 4,3 -1,4 2,4 -5,0 -4,-2 2,-4 -3,-3 1,-5 -5,1 -1,4 2,4 -4,3 -2,-5 -5,1 -4,-2 -4,1 -2,4 5,1 6,1 -2,5 -2,5 0,5 3,4 2,-5 3,3 -1,5 -5,2 3,3 5,0 -3,4 3,3 2,4 2,3 -5,0 -2,4 0,5 1,4 0,5 -5,-1 -1,-4 -4,-2 4,-3 0,-4 -5,1 -4,3 -4,0 2,-4 1,-4 5,1 2,-4 4,2 3,-4 -4,-2 -1,-4 -4,-2 -4,3 4,2 -3,3 -4,0 -2,-4 -3,-3 0,-4 4,2 4,-2 4,-3 -1,-4 -2,-4 1,-5 2,-4 -4,-2 -5,1 -2,3 4,2 -4,3 3,4 3,4 -4,1 -4,-3 -2,-4 -1,-4 -4,-2 4,-3 -4,-2 -4,3 -5,1 2,-4 3,-3 -1,-4 -4,-2 -1,5 -2,5 -4,-3 2,-5 -3,-2 -3,3 -3,3 2,4 4,3 -4,2 -4,-2 -1,-4 -2,-4 -2,-4 5,0 3,-4 -3,-3 -3,3 -3,-3 -1,-4 3,0 1,-4 4,-2 -2,-3 4,-2 -1,-4 3,-1 2,-5 -4,0 -4,2 -1,5 -3,-4 -1,-4 -5,-2 0,-4 3,1 3,-4 1,4 3,3 1,-5 4,3 1,-5 -3,-2 -3,-2 -4,-2 2,-4 -4,-1 -1,-4 4,0 4,2 1,-4 5,-2 -3,-3 5,-2 -3,-3 -5,1 -2,5 -4,1 1,-5 -5,2 -1,4 -3,-3 -3,2 0,4 0,4 4,-2 1,4 3,4 -1,4 -3,-3 -4,-2 0,4 2,4 -1,4 0,4 1,4 0,4 3,0 2,-5 2,4 2,4 0,4 -2,2 -2,-4 -4,-1 1,4 -1,3 3,1 -2,3 3,2 -2,3 4,2 -4,2 1,3 1,5 3,-3 1,3 1,4 -4,0 1,4 1,4 3,-3 2,4 2,-4 3,3 0,5 4,1 0,4 4,0 2,-4 -1,-5 -4,1 0,-4 4,-2 5,2 -1,4 2,4 -2,4 1,4 -4,1 -4,0 -4,-1 -2,-4 -3,3 -1,-4 -1,-4 -4,0 1,4 1,4 1,4 2,3 2,-3 4,1 -2,4 -4,2 3,4 1,4 2,4 0,5 5,2 -2,5 6,-1 2,-6 0,-5 -5,1 2,-5 3,-4 1,-4 -5,2 -4,5 -1,-5 1,-4 3,-2 4,-1 4,0 4,-1 -2,-4 0,-4 2,-4 -2,-4 0,-5 4,2 2,5 3,3 -4,2 3,3 -4,2 3,2 3,3 2,4 2,4 -1,4 -2,5 2,4 4,-1 4,1 2,3 2,5 4,1 2,4 3,-3 4,3 1,-5 3,2 1,5 1,4 -3,3 -2,-4 -3,3 -4,0 2,-4 -5,0 -3,-3 -4,-2 -5,1 2,-5 -3,-4 -5,0 -4,1 -1,-5 0,-4 2,-4 1,-4 -4,-1 2,-4 -2,-3 -3,3 -2,5 -2,4 5,0 -2,5 0,5 -3,4 0,5 -5,1 -3,3 3,4 5,-2 2,4 1,4 -6,-1 2,5 2,5 2,3 1,3 2,4 2,3 1,4 3,3 2,4 4,-3 -2,-5 -3,-2 -2,-4 2,-4 -2,-4 -3,3 -2,-5 -2,-4 3,-3 2,-3 -2,-5 2,-4 -4,-2 0,-5 5,2 5,-1 -1,5 -1,5 2,5 -2,4 -3,3 5,1 3,-3 5,0 2,-5 -4,0 -2,-5 5,-1 4,3 3,4 5,1 3,3 2,-4 2,4 3,1 0,-4 2,-3 3,-3 -1,-4 4,-2 4,-2 0,4 -3,2 0,4 0,4 -4,-1 -1,4 4,1 -2,3 1,3 -3,1 -3,-3 -3,3 -2,-4 -4,1 -3,-2 -3,-3 -4,0 2,5 -1,4 -4,-3 -3,-2 -3,2 -4,2 3,3 -2,4 4,2 4,-2 -2,-4 3,0 4,2 4,-2 2,-3 5,1 -2,4 -4,3 0,4 4,-1 -1,5 5,0 -2,5 1,5 5,2 3,4 3,-4 -2,-4 -5,-3 4,-3 -2,-4 5,0 -1,-5 -4,0 -5,1 1,-5 3,-2 4,2 4,-1 2,3 0,4 4,0 3,3 4,1 -1,5 3,4 4,-1 -1,-5 0,-5 4,0 1,5 4,-3 2,5 -4,3 -3,4 -3,3 -5,-1 -4,-2 -2,-4 -2,-4 -3,-4 -3,4 3,5 1,4 2,3 4,2 5,1 -3,3 -5,1 1,4 -4,3 -1,-4 -1,-4 3,-2 -4,-2 -4,3 2,4 0,4 2,4 -3,1 -1,4 -4,2 2,4 -2,3 -2,4 -3,-4 2,-5 -5,0 -3,-4 5,-1 2,-3 4,2 1,-4 -3,-3 4,-2 -2,-3 -3,-4 -3,-4 -6,1 1,-5 -5,-2 3,-4 -3,-4 -2,-3 0,-4 -4,2 -4,2 3,3 3,4 -5,2 -5,2 3,4 5,-2 4,5 -6,2 3,4 3,5 6,-1 -3,-5 6,0 3,3 -1,5 -3,3 -5,0 -10,13 -4,-3 -4,1 1,-5 -4,-2 2,-3 -3,-3 -3,3 -2,-4 3,-4 -3,-4 -2,4 -3,-2 -3,-4 5,-2 -2,-5 -3,2 -5,2 -4,1 3,4 3,3 -11,7 13,-3 4,1 -2,5 4,0 -1,5 5,-1 4,2 -5,3 3,3 2,4 4,-2 4,0 1,4 -5,2 3,4 3,4 3,4 3,5 3,-4 -2,-4 -2,-4 -3,-3 2,-6 4,4 3,4 0,5 4,-1 -1,5 4,-1 -1,5 -5,1 2,4 -5,1 5,4 4,-3 2,-4 2,-4 3,3 2,3 -4,2 -3,4 -1,4 5,2 1,-5 4,1 1,-5 4,3 3,4 -4,1 -4,2 -2,4 2,8 5,-2 -2,-5 3,-3 3,5 3,-5 3,4 5,3 5,4 4,4 5,4 -5,1 -5,-2 -4,-4 -5,-3 -5,0 2,5 5,3 4,5 5,0 0,5 6,-4 0,6 2,4 4,-2 -1,-5 1,-5 4,3 0,5 5,-1 4,3 4,3 3,2 -5,4 -3,-3 -4,-3 -4,0 -3,4 6,2 4,4 5,2 3,5 2,-4 3,3 1,5 4,-3 2,-4 -4,-1 -3,-3 -4,-2 4,-3 4,2 3,2 4,3 4,2 4,3 4,2 4,2 4,2 -2,3 3,4 4,2 0,-6 5,3 5,3 5,3 6,2 5,2 -4,4 -5,-1 0,5 -6,-2 1,-5 -6,2 2,-5 -4,-2 -4,4 -4,-4 -4,2 -1,-5 -4,2 -1,-5 3,-3 -4,-2 -3,-2 -3,-3 -4,-2 0,4 -4,2 5,2 4,3 2,3 -14,6 -16,11 -12,-19 -21,4 2,-21 -18,-13 -6,23 -22,-7 7,-21 3,-20 -19,0 -8,-17 -8,-19 -17,-12 -16,-10 0,-21 -2,-19 -10,-15 -5,-18 17,-3 6,1 3,3 1,5 -7,-2 3,7 6,1 3,5 -6,0 3,5 6,1 1,5 -5,-1 2,5 5,1 3,4 -5,0 1,5 5,0 4,-2 4,-2 -4,-2 1,-4 -2,-4 -3,3 -1,-5 0,-4 -3,-4 -1,-4 -2,-3 -2,-5 -2,-5 -2,-5 -2,-5 -2,-5 -2,-6 -2,-5 -4,5 2,6 2,6 -6,-1 -2,-6 -2,-5 -2,-6 5,1 4,-5 0,-5 -3,-4 -2,4 -1,5 -6,-2 2,-5 -3,-2 -2,-5 3,-3 4,-1 0,6 5,-2 -1,-4 -1,-5 -2,-4 0,-5 -4,0 -4,1 2,4 2,5 -5,1 -2,-5 -2,-6 5,-4 3,-3 4,2 -1,-5 -2,-4 -3,3 -4,1 -2,5 -3,-3 1,-5 5,-3 -5,-1 -2,-4 -1,-4 4,-2 4,1 -2,4 4,1 4,2 -1,-5 -1,-6 -4,-1 -4,-1 -4,1 -2,-4 1,-5 4,3 4,0 5,2 -2,-6 0,-5 -4,0 -1,4 -3,-4 -4,1 1,-4 -3,-4 5,-1 4,2 4,1 -1,-5 -5,-2 -4,0 -4,-2 3,-3 3,-3 3,3 5,2 0,-5 -4,-3 3,-4 -7,1 -5,3 1,-6 5,-2 5,-2 0,-6 -5,2 -5,2 0,-6 5,-3 5,-2 0,-6 -5,1 -5,3 1,-7 -1,-6 5,-1 4,5 2,-7 0,-6 -5,2 -6,0 1,-6 0,-6 6,4 5,0 0,-5 -5,-2 -5,-4 1,-6 5,-1 0,5 5,3 1,-5 0,-5 1,-5 -5,-4 -1,5 -5,1 1,-6 -1,-6 5,1 4,0 3,4 2,-4 -2,-4 -5,-1 -4,-1 0,-5 4,1 4,1 4,3 0,-5 1,-4 -5,0 -5,-1 -1,-4 4,0 5,0 4,0 0,-4 2,-4 1,-5 2,-5 -3,-3 -3,5 -2,4 0,4 -3,3 -5,-1 3,-4 -3,-4 4,-2 3,-4 -5,-3 6,-1 -1,-5 2,-6 2,-5 4,-2 0,6 -2,5 0,4 4,3 1,-5 3,-5 -2,-5 4,-1 2,-6 -5,1 1,-5 6,-2 2,-4 2,-5 2,-5 4,-5 -2,-6 5,-1 1,-6 2,-5 4,-5 -2,-6 7,-1 -3,-6 6,0 -2,-7 6,1 3,-4 -4,-3 7,-2 -3,-5 6,-1 4,-3 -3,-4 -2,-5 -6,1 3,5 -6,2 -3,6 -4,5 -4,6 -4,6 -3,6 -2,7 -3,5 0,8 -5,-2 -4,6 4,2 2,5 -4,2 -4,-3 -3,6 6,2 -2,5 -5,-1 1,5 -9,-3 4,6 0,5 -5,2 -20,-1 -19,0 3,20 9,14 -14,10 11,11 -9,14 1,18 -1,19 0,20 0,19 -1,19 1,18 0,17 5,13 -8,15 14,4 4,16 -16,2 18,16 -18,6 11,13 -11,16 15,8 9,17 -22,5 20,16 -20,15 21,10 -16,22 -1,30 -1,33 25,-12 5,-31 3,-26 21,6 7,22 -10,22 27,-1 -4,26 -26,3 -25,11 -22,13 0,28 26,-3 18,-22 12,25 29,-1 -14,-26 26,-6 25,8 -11,24 28,2 12,-21 18,20 27,3 -4,-22 21,3 7,20 14,-14 9,15 15,-5 15,6 21,1 3,-14 -2,-4 -4,2 -4,-2 -3,4 -2,-5 -2,-4 -3,4 -2,-5 -3,3 -3,-3 -4,0 -3,-3 -4,3 0,-5 -3,-3 -2,4 -4,-3 -4,-2 5,-3 4,-5 2,4 5,-1 0,4 5,-2 -2,5 3,2 4,1 0,-5 5,0 -1,4 4,2 2,-4 4,1 -1,3 1,4 6,1 -2,-3 0,-4 5,2 2,5 4,-3 1,6 1,6 6,1 -1,-5 -1,-6 6,1 2,6 0,5 3,6 3,-8 4,5 6,1 6,-2 0,5 5,-2 5,2 5,1 6,1 -1,-4 4,0 2,4 2,-4 3,1 0,4 5,0 4,0 -2,-4 4,-2 3,-1 1,-5 -5,0 -4,3 -3,3 -3,-3 3,-4 -6,0 -2,3 -5,1 0,-5 -6,-1 1,4 -1,4 -4,-2 -2,-6 -4,4 -3,-5 -5,4 -2,-5 -4,5 -2,-5 -6,-2 6,-15 -4,-1 -2,-2 -3,1 -3,-1 -2,-4 -3,3 -1,-4 0,-4 -2,-4 4,-1 -1,-3 3,-3 2,3 3,2 -3,3 -1,4 3,3 2,2 4,-1 4,-1 -2,4 3,0 4,0 -1,4 3,-1 3,3 4,0 2,-5 3,4 4,3 2,-4 -3,-3 -3,-4 1,-5 -1,-4 1,-5 -5,2 -2,3 -4,-1 2,5 4,1 -2,4 -2,4 -3,-4 -4,-2 2,-3 -3,-3 -3,3 -4,1 -4,0 1,-3 5,-2 -3,-2 3,-4 5,2 4,-3 4,1 5,-2 4,-2 -4,-2 -4,1 -4,0 -4,-2 -2,4 -3,-3 -4,2 -2,4 -3,-3 2,-4 3,-3 3,-3 -3,-2 -4,-1 -4,2 3,3 -3,4 -4,2 -3,3 -4,2 2,3 -3,3 2,4 0,4 1,3 -5,-2 -1,-5 -1,-5 -4,-2 4,-3 -3,-2 -5,1 -3,-3 5,-2 -2,-4 5,-1 -3,-4 -4,-2 -2,4 -4,-3 -4,1 -4,2 3,4 4,-2 3,3 -4,4 -5,0 -2,4 5,2 5,-1 4,2 3,4 4,1 -1,5 -6,-2 -4,-3 -6,-1 -5,-2 -6,-2 2,-3 1,-4 2,-4 -5,0 -1,-4 4,-2 -5,-2 -4,2 1,4 -1,5 4,3 -3,3 -5,-2 -1,-4 -4,2 -5,-3 -5,-2 5,-3 -3,-3 -4,0 -4,3 -4,-3 4,-3 -3,-5 -4,0 -2,5 -5,-2 2,-6 -4,0 -3,3 -5,-2 4,-4 -5,-2 -4,2 -4,-2 4,-3 -4,-2 -4,2 -3,-2 3,-3 1,-4 4,-2 0,5 4,-2 1,-5 1,-3 5,2 -2,5 2,4 -5,0 2,4 4,1 3,3 5,0 5,2 4,0 3,-5 -5,0 2,-5 0,-5 -1,-5 -4,3 -4,2 4,3 -2,4 -5,1 0,-4 -3,-3 2,-4 4,-3 4,-1 -2,-4 -4,0 -3,3 -4,-1 2,-4 0,-5 5,2 4,-1 2,-5 1,-5 5,-2 5,-2 2,-6 1,-6 0,-5 -4,2 -4,3 3,3 -2,5 -6,1 2,-5 -2,-5 -5,-1 3,-5 -4,-3 -6,2 3,3 -1,4 2,4 5,1 -3,4 2,4 -2,5 0,5 -5,-2 -1,-4 3,-4 -3,-4 -2,-5 -6,0 2,4 2,5 -5,0 -2,4 5,2 1,5 0,5 -1,4 -4,0 -2,4 -4,-3 2,-5 5,-2 -2,-5 -4,2 -4,-3 -5,2 -2,5 6,-1 -1,4 -5,2 -4,-2 0,5 5,2 4,-1 4,3 -5,2 0,4 -3,3 -3,-3 0,-4 -5,2 0,-4 -2,-5 -3,4 -3,-3 -4,-3 -4,-2 -3,-3 2,-4 -1,-3 -4,3 -1,-4 -4,0 1,-5 -5,1 -3,-4 -4,-4 -4,-2 3,-3 -6,-2 -4,-3 0,-5 -5,0 1,-5 -4,1 0,-4 4,-3 3,3 2,3 4,3 -1,4 5,1 3,3 4,4 3,3 1,5 4,-1 4,3 0,4 4,-1 4,2 0,3 1,4 -2,3 5,1 4,2 4,-3 -3,-3 -4,-1 1,-4 6,1 4,3 2,-5 5,-3 7,1 2,-4 -4,-2 5,-3 -1,-4 3,-4 4,-2 4,0 -2,-4 -4,-1 -4,3 -1,-5 -16,1 1,-5 -2,-5 -4,2 1,5 -3,4 4,3 -5,3 -5,0 1,-6 -6,1 -4,-4 -4,-4 -5,-4 -3,-5 6,-1 -1,-5 6,-3 3,-5 5,5 -2,5 -5,3 -3,5 5,2 4,4 6,0 0,-6 -5,-2 5,-5 5,4 13,-10 4,2 5,0 -1,4 5,1 5,-1 -4,-4 -2,-4 2,-4 3,3 2,4 4,0 -2,-4 5,-1 -1,-5 -5,2 -1,-5 4,-2 -4,-3 -4,2 0,5 -4,-1 -2,4 -3,4 -4,-1 2,-3 2,-5 -3,-2 -3,3 -2,4 -2,3 -3,-4 2,-3 -2,-4 -3,4 -3,-4 -3,-3 6,-1 -2,-3 4,-3 3,5 3,4 3,-3 4,1 4,2 0,-5 4,2 3,-2 -3,-3 -4,-3 -3,-4 -4,3 2,4 -4,1 -3,-3 -2,-3 4,-3 3,-3 12,-12 3,1 4,1 -2,3 4,2 2,4 3,3 3,2 3,4 2,-4 -1,-4 -4,-2 -2,-3 -2,-3 -3,-3 -2,-4 -5,-1 -4,-4 -2,4 -4,-4 3,-5 -4,-1 -5,1 -5,0 -3,5 -5,3 -3,4 -4,4 -4,4 -4,3 -3,4 -2,-5 -5,-1 -2,-4 -1,-5 -4,-3 -5,-2 -5,-1 -1,4 4,0 -1,4 5,0 3,4 -4,2 -4,-1 -4,-2 -1,-3 -3,-3 0,-4 2,-4 0,-4 1,-4 5,0 -2,5 4,2 2,-4 4,-4 2,5 -3,4 5,2 3,-4 -1,-5 -2,-5 1,-5 -4,-3 -2,5 -4,3 -5,-1 3,-4 -4,-3 4,-2 4,0 -2,-5 -5,1 -5,2 2,-5 5,-2 4,-2 -3,-4 -5,2 -5,0 -1,5 -4,2 2,4 1,4 -5,2 -1,-5 -5,-3 3,-3 -4,-2 0,-5 5,-2 2,4 4,-5 2,-4 4,3 5,-2 -2,-4 -4,-1 1,-5 5,1 3,4 2,5 2,3 2,4 4,0 4,0 3,3 0,4 -4,2 -2,-4 -5,0 1,4 3,3 4,2 4,-2 3,3 1,5 -5,-1 -2,5 5,1 -2,5 -1,6 5,-1 2,4 -4,3 -6,-2 1,5 2,4 5,0 3,-4 4,-3 3,-3 -4,-4 1,-5 -5,0 2,-5 2,-5 -2,-4 5,-2 -5,-3 -4,-2 1,-5 -2,-4 -4,-2 4,-2 1,-4 2,-4 -3,-3 0,-4 4,-3 4,-2 -3,-4 -4,-4 4,-2 -1,-4 -4,1 -3,-4 4,-1 1,-4 4,-2 1,5 2,6 1,4 1,5 3,4 2,5 -5,0 -5,2 2,5 5,-2 5,1 -2,5 5,1 3,5 3,5 -6,0 -3,-5 -5,-1 -4,0 2,-5 -5,1 -2,4 2,4 0,4 5,-2 -1,5 4,1 2,-5 4,5 5,0 5,-1 -2,6 6,-1 0,6 -5,2 -4,-2 -5,2 1,-6 -5,-1 -2,5 -3,5 5,0 -2,5 -1,5 5,-1 2,-5 5,-2 7,0 5,0 2,-5 4,5 1,6 4,-1 0,5 4,1 3,3 1,3 3,2 3,4 2,3 4,2 0,5 4,-1 0,4 4,0 4,2 1,4 4,0 3,3 3,3 -1,3 4,-1 3,3 -4,2 2,3 4,0 2,-4 3,3 4,2 3,2 4,3 5,2 -4,2 0,4 -4,1 0,-4 -2,-4 -4,-2 -1,3 2,4 0,5 -4,-1 -4,3 4,2 1,4 3,-3 5,2 -1,-4 4,-1 2,4 3,-4 5,1 0,-4 -4,-3 4,-2 5,2 4,3 4,2 5,1 5,2 5,2 -2,3 -3,4 -3,3 -2,-5 2,-3 -5,-2 -3,4 2,4 2,5 -4,0 -2,-3 -5,1 -2,-3 0,-4 4,1 1,-5 -3,-4 -3,4 -5,2 -4,3 4,2 2,4 1,5 4,0 4,0 4,2 4,1 3,-4 3,3 -2,4 -4,2 -4,-1 -4,-2 -5,-1 1,4 -2,4 1,4 -5,1 0,4 -5,-2 -4,3 -5,1 1,4 -1,4 -2,5 -5,1 -4,-2 -4,-3 -5,-1 -4,-2 -1,5 5,1 4,3 5,2 -4,2 -4,0 2,5 -2,3 -3,-4 -3,-3 2,-4 -5,2 -1,-4 -1,-4 -4,-2 -2,-3 3,-3 4,3 1,-5 5,1 3,-4 2,6 3,-3 5,-1 -2,5 2,3 4,2 1,-5 0,-6 3,-4 1,-5 2,-4 4,3 -1,5 5,-2 4,-2 2,-5 -5,1 -3,-3 5,-2 -1,-5 -4,1 1,-5 -4,-3 -5,-2 -2,5 5,2 -4,3 4,3 -5,2 -2,5 -1,5 -4,2 -5,2 0,-5 -5,1 -3,-4 5,-2 3,-4 4,5 2,-5 2,-4 -2,-5 2,-5 -5,1 -4,-3 5,-2 -3,-3 -5,0 1,-4 4,-2 4,-2 3,-2 -2,-4 2,-4 -4,0 -3,2 -3,2 3,3 -4,2 -4,0 0,-3 1,-5 4,-2 -3,-2 -1,-4 -3,-2 1,-4 -4,-2 -2,4 -4,-1 2,-4 -4,-1 2,-4 -4,0 -4,-2 -2,4 3,2 2,5 2,4 5,2 4,1 2,4 -5,0 -5,-1 1,4 -1,4 -1,5 4,-2 2,-4 4,-1 -1,5 -3,4 4,1 4,0 -2,4 1,4 -4,2 -1,-5 -4,2 -1,-5 -6,0 2,3 -1,4 -5,-3 -4,4 4,2 1,5 4,-3 5,-2 4,3 2,5 3,-5 3,-3 4,3 3,4 -6,1 -2,5 -6,1 0,5 -2,4 4,3 -6,2 -5,1 -5,1 3,4 -5,2 -1,4 2,4 3,-4 1,5 5,0 1,5 -5,0 2,4 -1,4 3,3 2,-5 4,0 -1,6 4,2 1,-4 3,4 -2,4 2,3 3,-3 2,-5 3,-3 1,4 -1,3 0,4 -4,2 -4,2 -5,-2 -5,-1 2,-4 -4,-1 -4,3 1,5 4,3 5,1 4,0 -1,4 1,5 5,0 -1,-4 1,-5 4,-1 2,-2 4,2 -1,-4 1,-5 0,-3 4,-3 -4,-1 -1,-4 -3,-3 4,-1 3,-3 5,-1 4,1 5,0 5,1 4,2 -3,3 -4,-1 -4,1 -4,-1 -5,-1 -2,3 4,2 5,2 -4,3 3,3 -3,3 -4,-2 -2,4 3,1 -2,4 4,1 4,-2 1,-4 5,2 2,-5 -4,0 1,-4 2,-5 3,4 3,-3 3,3 2,4 -1,4 -4,-3 -2,4 3,3 5,2 2,4 3,-3 2,4 -3,4 -4,3 4,2 4,-1 2,-4 4,-1 -2,-3 -2,-4 -2,-4 -5,-1 1,-4 5,1 0,-4 -1,-4 -5,1 -1,-4 -4,-2 2,-5 4,3 3,3 5,1 2,4 0,4 0,4 -1,3 2,4 3,-3 4,-1 4,0 2,-3 4,1 1,-5 -5,-1 -5,3 -4,1 0,-5 4,-2 -4,-3 1,-5 -4,1 -4,-2 -4,-2 -3,-3 -2,-5 -4,0 1,4 -5,-1 -1,-5 -5,-1 0,4 -5,-1 -4,-1 3,-4 0,-5 4,-2 2,4 4,-3 2,4 5,2 3,-4 -4,-2 -3,-5 4,-1 4,3 4,1 4,2 -3,3 -3,4 5,2 -3,3 4,3 4,2 4,-3 2,4 5,2 -3,4 3,3 4,2 4,0 1,-4 -5,-1 2,-4 4,0 4,2 0,3 -1,4 -2,4 -1,5 -2,5 -5,1 3,3 -2,4 5,-1 4,2 5,0 5,1 1,-4 -1,-4 -3,3 -3,-3 -2,3 -3,-2 1,-4 4,-2 4,2 3,-3 0,-5 -4,2 -5,1 1,-4 4,-1 -2,-4 1,-3 4,3 1,-5 0,-5 -4,-2 -1,4 -4,-3 1,-4 -3,-3 -2,4 -4,2 -4,-1 3,-3 3,-3 1,-4 -4,-3 -2,4 -2,-4 1,-5 -5,0 -4,2 3,3 2,4 2,4 -3,4 -3,-4 -2,-4 -4,4 -2,-5 3,-4 -1,-5 -4,-2 -3,-2 -4,-1 -4,-2 -1,-5 5,2 4,1 4,2 5,2 3,3 4,-2 -2,-4 -5,-2 -4,-2 3,-3 3,-3 2,4 3,-4 2,5 1,5 1,4 5,1 1,4 3,3 2,-5 -1,-5 -1,-5 -4,3 -1,-4 -2,-5 5,1 3,-4 2,4 2,4 1,4 1,4 1,4 -3,3 -1,5 1,4 4,2 4,3 0,-5 -4,-3 4,-2 -4,-3 4,-3 -1,-5 0,-4 -2,-4 -2,-4 4,0 3,3 2,-5 3,4 6,0 2,-3 -5,-2 -1,-4 -5,0 -4,2 0,-4 -4,2 -2,3 -3,-4 -5,-1 -3,3 -5,-1 -4,0 -4,1 -4,-2 3,-3 3,-4 3,4 2,-4 -2,-5 5,1 4,2 -3,5 6,-1 3,-3 3,4 2,-3 4,1 5,2 5,0 5,1 1,5 5,-4 5,1 -4,5 3,3 4,-3 2,5 -1,5 -5,-1 -5,-2 1,6 5,2 6,0 2,4 3,-4 4,2 -2,4 -2,5 -2,3 -5,-2 2,-3 -3,-4 -4,1 -4,-2 0,7 4,0 0,4 4,2 5,2 -2,4 -4,0 -4,-2 -4,-3 1,7 4,2 5,1 -2,4 -7,-1 0,7 5,-1 -1,5 -4,3 0,6 -2,8 18,7 2,-6 5,5 5,-4 4,-4 -4,-4 -5,4 -3,-5 3,-4 5,-2 -4,-5 5,-3 -2,-5 2,-7 2,-6 2,8 1,5 2,5 2,4 -5,2 1,6 5,-3 1,5 3,5 -6,1 2,5 -5,0 -3,4 -4,5 -1,6 -3,5 -5,1 -4,-2 4,-4 4,-3 -2,-5 -6,2 -3,5 -2,5 -2,6 6,0 1,5 -5,0 -5,0 -5,-2 -5,0 -6,-1 0,6 5,1 6,0 6,1 5,0 6,1 3,-4 3,4 6,0 5,1 3,-3 3,3 5,-1 2,-3 3,3 2,-5 2,4 3,1 3,-3 2,3 2,-4 3,3 4,0 -2,-3 -1,-4 -3,1 -4,-1 -4,3 -1,-3 -3,-3 -4,2 -4,2 -4,2 -2,-5 -3,4 -4,2 -4,-1 -4,-2 -3,-3 6,-1 6,1 2,-5 -5,-1 3,-5 2,-5 4,-4 4,5 2,6 -6,-1 2,5 3,4 4,-3 5,-1 -2,-4 -2,-5 -1,-4 -3,-4 1,-5 17,-1 -1,-7 0,-6 -4,-2 -1,-6 5,2 1,-6 -4,-1 -4,-1 -2,-5 -1,-4 -2,-5 -1,-5 -2,-4 -2,-4 4,0 2,-3 4,-1 -1,5 -3,3 4,2 -1,4 1,4 2,4 1,5 5,1 -1,-4 1,-5 -4,-3 4,-3 -2,-3 2,-5 -4,1 -1,-4 2,-3 4,0 -2,-5 3,-4 2,-4 4,4 2,-5 4,-2 0,6 4,1 5,2 -2,4 -1,5 0,6 5,0 1,5 -6,1 0,6 6,-2 4,-2 2,-5 5,-2 1,-4 -4,0 2,-4 5,0 -1,-4 2,-3 3,3 3,-4 4,1 -2,4 0,4 -4,0 -3,4 0,5 4,-4 2,4 2,5 3,2 -3,3 -4,-2 -1,-4 -4,2 -4,-3 -3,3 -1,5 -5,1 -5,1 -4,2 1,6 -1,5 -1,5 2,4 -2,4 4,4 2,-4 1,-5 -1,-5 2,-6 0,-5 5,-2 1,5 6,0 -1,-5 1,-5 5,1 -1,5 5,-1 4,-2 1,5 -4,3 -4,0 -3,5 2,5 3,-4 5,-2 3,4 2,4 -3,4 -3,-5 -2,5 1,4 4,3 4,-2 3,-5 3,4 -1,5 -5,1 -2,4 -4,-2 -3,-3 -4,2 -4,-1 0,5 -5,-2 -1,-4 4,-2 1,-4 4,3 0,-6 -5,-2 -2,-5 -1,-5 -5,1 0,5 3,3 -4,3 5,2 -3,3 -4,1 2,5 -4,3 -2,-4 -5,-2 0,6 4,5 -4,2 4,3 2,5 -6,-1 1,5 5,1 5,-2 2,-5 4,2 4,-2 -3,-3 -4,-2 -5,2 0,-5 4,-3 5,2 3,2 3,3 2,3 1,4 0,3 -4,-2 -3,2 -4,1 -4,3 -4,2 -5,0 -4,0 -4,2 -4,0 2,4 4,0 5,-1 5,0 5,-1 5,-1 1,-4 4,3 2,-5 3,4 5,0 -2,-4 4,-1 3,3 2,-4 2,3 2,-2 4,1 0,-3 -4,-2 3,-2 2,-4 0,-4 -4,1 -1,4 -4,2 -4,0 1,4 -4,-1 -1,-4 3,-3 -1,-3 -4,1 -3,-3 2,-4 4,2 4,2 3,4 2,-5 4,-1 -2,-3 5,-2 2,4 4,-2 -1,-5 -4,-2 1,-4 -2,-4 4,-3 2,4 4,1 -2,4 5,2 -2,3 2,4 4,2 0,5 -4,-2 -4,-2 -4,3 4,2 -4,3 1,4 -3,1 0,4 4,-1 4,-2 -1,-4 4,-2 4,1 -2,4 4,-1 4,-2 -2,-5 -1,-4 4,1 5,0 -3,4 2,3 4,-2 2,-4 3,2 1,-4 4,2 0,-4 3,-3 2,-4 -1,-3 -1,-5 -2,-4 -3,3 -3,3 4,1 1,5 -4,-1 1,5 -5,2 0,-4 -4,2 -4,2 -1,-4 -4,3 -1,-4 -4,1 1,-5 2,-3 -5,-1 0,-4 5,0 2,-4 -4,-1 0,-4 0,-5 -3,-4 3,-4 3,3 2,4 0,4 1,3 6,-1 -2,-5 -1,-5 4,1 4,1 -2,4 3,3 -1,4 -4,2 -4,0 -2,4 0,4 0,4 4,-2 1,4 4,-2 -1,-4 -3,-3 5,-1 4,-2 0,-4 4,0 -2,-4 -2,-4 2,-4 -3,-3 4,-2 3,-3 -4,-2 -4,2 -4,3 -4,-1 -5,0 -4,-4 -5,-2 -1,-4 -4,3 -1,5 5,1 -3,4 -5,1 3,4 4,3 -1,5 2,4 -4,2 -3,-4 0,-4 -3,-4 -4,3 1,5 -5,2 -2,-5 -4,-3 2,-5 4,2 5,-2 -1,-4 -5,0 -5,0 0,-4 5,-1 4,-1 5,2 0,-5 -3,-3 -5,1 -4,1 0,-4 -5,0 -2,-5 4,0 -1,-5 1,-4 4,-2 3,3 -3,3 5,2 -4,3 3,3 5,-2 4,0 -1,4 4,-1 3,-3 -3,-4 -5,-1 -3,-3 -2,-5 -3,-3 3,-4 2,-4 -4,-2 -1,-5 -4,-2 -3,-3 -2,-4 -1,-4 -6,2 2,4 3,4 1,4 3,0 3,3 2,5 -2,3 -2,4 -2,-3 1,-4 -2,-4 -4,2 1,5 -4,-1 -3,2 -4,-1 2,-3 -2,-5 4,-1 2,3 3,-4 -3,-4 -2,-4 -3,-3 -1,4 1,4 -5,-1 0,-5 -4,1 -1,4 1,4 4,1 -3,3 4,2 -2,3 -4,0 2,4 4,1 -2,3 -4,1 -1,4 -1,4 -4,-3 1,-5 2,-5 -2,-4 -5,0 -2,-4 2,-5 3,4 4,0 -1,-4 -2,-3 2,-4 -5,1 -5,1 -1,5 -5,1 0,-5 -5,2 0,5 -4,0 -2,-5 -3,4 1,5 -2,5 -2,5 -3,-4 -2,4 -4,2 -3,3 -2,-3 -1,-4 2,-4 2,4 3,-2 2,-3 4,-2 2,-4 -1,-5 -4,4 -2,-4 -6,0 3,4 1,4 -5,-1 -3,-3 -3,-3 -3,5 4,2 0,4 -5,-1 -6,1 2,-5 2,-6 -6,1 -3,5 0,5 0,5 -6,-2 1,-5 -1,-5 3,-4 -6,-1 2,-15 -4,-1 -5,0 -4,0 -4,-1 -4,-1 -4,-1 -1,-5 4,0 4,2 4,-2 0,4 4,-1 1,-5 -4,-3 4,-2 5,1 5,-2 0,5 -5,2 -1,4 5,1 4,-2 4,3 -3,4 5,0 5,0 -2,-5 5,1 2,5 4,-4 3,4 2,-4 4,4 2,-5 5,0 -1,4 6,-2 4,-1 5,-1 5,-1 5,-1 4,-3 1,4 5,-1 -1,-4 5,-2 1,4 4,-1 1,-4 4,2 1,-4 4,3 2,-5 4,2 2,-5 4,3 2,-5 5,2 2,-5 5,1 1,-4 5,1 1,-5 4,2 1,-5 4,2 4,-2 -4,-3 4,-2 3,2 4,-1 -3,-4 3,-3 1,4 3,-1 3,-2 -3,-3 4,-3 3,3 4,-3 -2,-4 6,0 -1,-4 5,-2 3,-4 6,-2 -2,-4 6,-1 -1,-5 6,0 -1,-5 5,0 -1,-5 5,0 -1,-5 5,-1 -2,-4 5,-2 2,-4 2,-5 4,-2 -2,-5 6,-1 -2,-5 5,-2 -2,-5 5,-1 0,-5 2,-5 3,-5 -1,-5 5,-1 -3,-5 5,-2 -3,-4 4,-2 -3,-4 5,-1 -3,-6 4,1 1,-4 -4,-3 4,-2 -2,-5 4,0 0,-4 -3,-2 4,-4 -4,-3 4,-3 -3,-4 4,-2 -2,-5 1,-5 2,-5 -5,-2 -3,-4 7,-1 -3,-4 3,-3 -5,-3 -5,-1 2,5 -4,4 -4,3 3,3 3,2 3,4 -8,0 -4,-4 -4,4 -6,-1 3,-5 5,-4 -4,-3 -4,-2 -1,4 -2,5 -5,1 2,5 -6,0 -1,-6 -3,2 -2,4 -3,-4 -3,4 -2,-5 1,-4 -3,-4 2,-5 -2,-4 -3,2 -5,3 3,3 1,5 1,5 1,4 -6,-1 -1,-5 -2,-5 -2,-5 -4,1 -4,-2 -1,-4 -4,1 0,4 -4,1 2,4 5,-1 1,5 4,-3 3,4 1,5 -6,0 -6,1 -2,-5 -4,4 -1,-6 -4,2 -1,5 -6,0 1,-4 1,-4 4,-2 3,-3 1,-4 -4,-1 -5,-1 2,5 -5,2 -2,-4 0,-6 -1,-5 -5,-2 0,5 -4,-2 -2,-5 -2,-5 -2,-4 0,-5 -3,-5 -4,4 2,4 1,6 2,4 2,4 1,5 0,5 5,-2 5,2 -2,4 4,3 3,4 -4,2 2,4 -5,0 -6,0 -2,-6 6,-1 -3,-5 -5,1 -4,5 2,6 -6,0 -6,0 -6,1 0,-5 5,-2 5,0 -2,-5 5,-1 4,-4 -5,-2 -4,0 -5,-2 -2,-5 -2,-5 -4,2 -1,5 4,2 -4,3 4,2 5,2 -3,4 -4,3 -2,4 0,4 -5,0 0,-5 3,-4 3,-4 -4,-2 -2,-3 0,-4 0,-5 0,-4 -2,-4 -4,0 1,5 0,4 -5,-1 -4,-2 4,-2 -4,-3 3,-2 2,-5 2,-3 3,4 3,-4 5,1 -2,4 2,5 3,-3 3,-3 3,5 5,1 -2,4 2,5 5,0 5,2 -1,-5 -4,-3 0,-6 -1,-4 -5,2 -3,-4 4,-2 -1,-5 2,-4 3,4 2,-4 4,-2 -4,-3 -5,0 -4,2 -3,4 0,5 -3,3 -2,-4 0,-5 2,-4 2,-3 1,-4 4,2 0,-5 -2,-4 -4,2 -3,4 -1,4 -3,4 -3,-3 -5,0 -5,2 -1,-5 -4,-3 -5,1 -4,2 -2,-4 -1,-4 -4,2 -5,-2 -4,3 -4,-3 0,-5 4,2 4,-3 5,-2 0,5 4,-2 3,-2 -2,-4 5,1 4,1 -3,4 -2,5 4,0 4,0 4,2 3,3 2,-5 4,-1 -1,6 4,1 2,-4 4,-3 3,-3 -3,-2 -4,2 -2,-4 -4,-3 -2,5 -5,2 -5,-1 3,-3 3,-3 -6,-2 1,-4 2,-4 3,-4 4,-3 1,4 -2,4 -3,3 4,2 4,-2 1,-4 1,-5 5,-1 -1,4 4,0 -1,4 -4,2 -2,4 6,-1 -2,4 5,1 4,4 4,0 -1,4 5,-1 -2,5 -1,5 4,-1 3,3 2,-5 -3,-3 5,-2 -3,-3 -2,-4 -4,-2 -5,-1 -3,-4 -1,-5 4,-2 1,4 3,3 5,2 4,2 3,4 5,-2 -3,-4 -5,-3 3,-4 4,1 6,-1 -2,5 2,5 5,1 -3,3 4,2 0,5 -2,4 -2,4 -3,-3 2,-3 0,-4 -4,-3 -4,2 3,4 -5,1 -1,4 4,0 2,4 -4,1 -4,0 1,5 2,4 2,5 1,5 2,5 3,-4 5,2 -3,3 3,3 4,-2 2,-4 4,0 -1,4 -2,3 -3,4 4,3 2,-3 4,0 -1,4 4,2 1,-5 5,0 -2,-3 -4,-2 -4,0 1,-4 4,0 4,1 4,0 0,4 2,4 4,0 -1,5 4,-1 5,-2 -3,-2 0,-4 -2,-3 -4,2 0,-4 3,-3 5,2 0,-4 4,-2 4,0 -2,-5 5,0 -2,-4 -5,-1 -3,3 -1,4 -4,1 -4,-3 5,-2 2,-5 -3,1 -4,1 -2,-4 4,-1 2,-2 4,-1 3,3 1,-4 1,-4 1,-4 3,-2 4,-2 3,-3 4,3 -3,3 -3,3 -4,1 -1,5 -1,4 4,2 1,-3 1,-5 5,-1 -1,4 0,5 2,4 -5,0 2,5 2,4 -5,0 1,6 -5,-1 -1,4 -4,-4 -2,5 1,4 5,0 5,-2 0,5 5,-1 5,1 3,4 -5,1 -5,0 -2,5 4,5 2,-5 5,-1 -1,5 5,0 2,-6 0,-5 4,1 5,1 5,2 3,3 3,-3 -2,-4 -5,-1 1,-5 -5,-1 -1,4 -4,-2 -5,0 -4,-2 -3,-3 -5,0 2,-5 6,0 -2,-5 -2,-4 3,-4 4,2 1,5 2,5 -2,5 5,1 5,-2 -3,-4 -2,-5 -1,-5 -2,-5 3,-3 3,4 2,5 0,5 4,-2 2,-5 -2,-4 1,-4 -5,-1 -4,-3 4,-2 4,1 4,1 0,-4 4,-2 0,4 2,4 0,4 -4,-2 -1,4 2,4 -1,4 4,4 -3,4 -3,-3 -4,2 2,5 5,1 -1,5 4,0 5,0 5,2 -1,-7 -6,0 0,-5 5,-1 -1,-5 0,-5 -5,2 0,-5 4,-2 -1,-5 -1,-4 -2,-4 0,-4 -4,-2 2,-3 -2,-3 -1,-4 -2,-4 -4,-1 2,-4 -5,-1 3,-5 -5,0 -3,4 -1,-4 -4,-2 -3,-3 -3,-3 -4,2 2,4 3,2 4,3 1,4 1,4 4,-2 3,2 -4,3 3,3 -4,2 3,2 5,-1 1,-5 3,3 1,4 -4,3 4,2 -3,2 -4,0 -2,-3 -2,4 -3,2 -2,4 -1,4 -4,2 -5,0 0,-4 5,-2 2,-4 -4,-2 -2,3 -2,-4 3,-3 2,-4 3,4 4,2 1,-4 -4,-3 1,-4 -2,-4 -2,-4 -1,-4 -5,-1 0,5 -4,-2 -1,-4 3,-4 -1,-4 -4,-1 0,-4 -1,-4 5,0 1,4 4,-2 2,-4 2,-4 3,4 -1,5 5,3 3,3 5,-1 -3,-5 -5,-2 2,-4 -3,-3 -2,-5 -5,0 2,-4 -3,-4 -5,0 2,5 -2,5 2,4 -5,0 -5,0 1,-5 3,-3 -1,-5 -4,2 -3,3 -4,2 4,3 -3,4 3,2 1,5 0,4 -4,-1 -5,-2 4,-3 -4,-2 -5,-1 -5,-1 1,4 4,2 0,4 -5,-1 2,5 2,5 4,1 -1,-5 3,-3 2,5 4,-3 4,0 4,2 -4,2 -4,1 -3,3 4,3 4,-2 1,4 5,2 3,3 4,-2 2,5 -4,2 -4,-1 -4,-3 -4,3 -2,-5 -3,3 2,4 -3,3 -3,-3 -5,-2 -4,-2 -1,5 5,2 4,3 -4,2 3,3 -5,1 -4,3 -5,2 -4,2 -1,-4 4,-3 4,-2 4,-3 -5,-2 -4,2 -4,3 -3,3 -3,-3 -4,1 2,4 5,3 1,5 -3,2 -2,-4 -4,-2 -2,-4 -2,3 -1,4 -1,3 3,3 2,-5 3,3 2,4 4,-2 4,-1 2,-3 3,-2 2,4 -3,3 3,3 4,2 -2,3 -4,0 -4,0 2,-4 -4,-1 -4,1 2,4 -4,-1 -4,-2 -1,-3 -4,2 -3,-3 -2,3 -5,-2 3,-4 -4,-2 -2,-4 4,-3 3,4 2,-5 2,-4 3,-3 2,-4 1,-4 3,3 4,1 -2,-5 -2,-4 -5,0 0,-5 1,-4 -7,1 2,-5 5,-2 5,2 5,0 -3,4 -2,4 5,2 1,5 1,4 4,-2 4,-3 -5,-2 1,-5 -4,-2 4,-3 4,3 1,4 4,-2 4,1 4,2 3,-4 -4,-3 -4,-1 -4,0 -4,-2 2,-4 -2,-4 -2,4 -4,1 -4,-2 -5,0 -3,-3 -5,1 -5,2 -6,-1 2,-4 -4,-3 -3,3 -1,5 -6,2 -3,4 -3,-4 2,-4 5,-1 2,-5 3,-3 -4,-2 -1,-4 5,0 3,-3 4,-2 -2,-4 -5,1 -2,4 -4,-1 -3,0 0,4 -4,1 2,4 4,2 -2,4 -5,1 -2,4 -4,2 -2,-4 3,-3 3,-4 0,-4 -1,-4 -2,-3 -4,0 2,4 1,4 -2,3 -3,3 -3,-4 -2,-4 5,1 -1,-4 -1,-4 2,-3 1,-3 4,2 -1,-4 1,-4 2,-4 3,2 3,-3 4,2 2,4 -4,-1 -4,2 -3,1 2,3 -1,4 3,3 2,-4 0,-4 3,0 2,4 3,-3 2,-4 3,3 2,-4 2,3 4,2 1,4 2,4 1,5 -6,-1 -3,3 4,3 4,5 2,-5 3,3 5,-1 6,-1 -2,5 4,1 4,1 -2,-4 5,-1 1,-5 -5,1 -3,-3 4,-2 -1,-4 4,2 4,-3 4,0 4,2 4,-1 -3,-4 -4,-2 2,-5 4,2 5,-2 4,-3 4,-3 4,1 5,-1 -3,-4 -4,-1 1,-4 -5,1 -1,4 -4,-2 0,5 -4,0 -3,3 -6,-1 4,-5 5,-2 -3,-4 4,-1 5,1 4,-3 -4,-1 0,-4 -4,1 0,-4 -3,-4 -3,-4 -5,1 -5,1 0,-4 5,-2 -4,-3 -4,-4 -4,2 -4,0 -3,-3 6,-2 -5,-4 -4,-3 -2,6 -4,-3 -2,-4 4,-2 -4,-3 -4,2 -1,-4 -3,-3 -4,-2 -3,-2 -4,-1 -4,-2 -3,-3 -3,3 -1,-4 -4,3 -4,-2 3,-3 -4,-2 -3,2 -2,-4 -4,-1 1,6 -4,-2 -1,5 5,2 4,-1 3,3 4,2 -4,2 2,4 4,2 2,-4 1,-4 5,0 -1,4 5,-1 -1,5 3,4 5,-1 -3,-4 1,-4 4,3 4,3 2,5 3,2 2,5 3,3 4,2 4,3 0,5 -5,-2 -5,-2 -5,-1 1,-4 -5,0 -1,5 -4,-3 -4,-1 2,-4 4,-2 5,-1 -4,-4 -4,1 -4,1 -2,4 -3,3 2,4 -4,0 -4,1 -2,4 -2,4 -1,3 0,4 4,0 2,-3 2,4 5,1 0,-5 -3,-3 -4,-1 2,-4 4,0 3,3 2,-5 3,2 -1,6 4,2 2,-5 5,-2 -1,5 3,3 5,-1 -2,-5 6,2 4,3 -4,3 -5,2 -5,2 -4,-3 -5,2 -4,-3 -1,5 4,3 2,4 4,-4 2,5 2,5 5,0 4,-1 5,2 -1,-5 -5,-2 -5,1 0,-4 5,-3 5,-2 0,5 4,2 1,4 2,4 -2,4 5,0 2,-5 -1,-4 5,-2 -3,-5 -4,2 -3,-3 4,-4 -5,-1 2,-4 -2,-4 2,-5 5,-2 -1,6 1,5 5,1 -1,5 3,4 2,-5 1,-4 3,-2 2,4 2,4 -4,2 -2,5 -2,4 -4,3 -1,5 3,3 -1,5 -5,2 0,-5 -5,0 -1,4 -5,2 3,3 -2,4 -3,3 -5,0 -1,-5 5,0 -2,-4 -5,-2 -2,-4 5,-2 3,3 5,-1 -3,-4 -4,-3 -5,1 -4,1 -4,-3 -2,-4 -4,3 -4,0 3,-4 -2,-4 -3,-2 -1,5 -4,-3 2,-5 -4,0 -4,-2 -5,0 1,4 4,1 1,4 -4,1 -4,-2 -1,4 1,3 -4,1 1,4 -2,3 -3,-3 -1,-4 -1,-4 4,-1 2,-4 2,-4 -5,0 -2,4 -4,1 0,-4 -4,2 -1,-4 -2,-5 -3,3 -2,-4 -3,-4 -2,4 -2,-4 -4,2 -3,3 -1,-4 -4,-1 0,5 -4,-1 -1,-5 -4,0 0,4 2,4 2,2 4,1 -3,4 4,3 4,2 -4,3 -4,-2 -1,5 -4,-3 -4,1 2,5 -2,5 -4,-2 0,-5 -5,2 -4,-1 -5,-2 -4,-1 -4,2 -2,4 4,2 3,-3 5,2 4,2 -3,4 -4,-2 -4,3 -4,-2 0,6 0,5 4,2 4,-2 -2,-5 5,1 3,3 2,-5 4,0 -1,-5 5,2 4,2 -3,4 5,0 5,2 5,-1 3,-4 -4,-2 -4,2 -3,-4 4,-2 -4,-3 4,-2 5,-2 3,-3 3,-2 2,-4 -2,-4 -4,-2 0,-4 4,1 3,-3 1,4 0,4 4,-1 1,-5 3,3 4,2 -1,4 -4,-1 -4,2 -2,4 3,2 3,-3 3,3 0,4 -4,0 -2,3 -3,2 0,-4 -3,-3 -3,4 -5,2 3,3 4,0 3,3 -3,3 4,2 -3,4 -5,-1 1,4 -5,0 -5,0 -4,-2 -1,5 -3,4 5,1 4,-3 5,1 -3,4 -4,3 -5,0 -3,3 3,3 4,-1 5,-1 4,-3 2,-4 5,-1 -3,-4 4,-2 4,-2 1,-4 2,-4 -2,-4 1,-4 3,-3 1,4 -1,3 2,3 3,-2 4,0 3,-3 -3,-1 -4,0 -1,-4 4,0 -1,-3 0,-4 -2,-4 2,-3 3,2 2,4 0,4 0,4 3,-1 3,3 -3,1 2,4 -3,2 -1,4 2,4 2,4 -4,0 -3,-4 -1,-4 -4,0 -4,2 4,2 0,4 -5,-2 0,5 -5,0 3,4 -4,2 2,4 -4,3 -3,-4 -3,3 -4,3 -5,1 -4,2 -5,0 -4,2 1,-5 -3,-4 -5,1 3,4 -5,1 3,3 -4,3 -5,0 2,-4 -3,-4 4,-2 1,-5 -4,2 -2,-4 1,-4 5,2 5,-1 1,4 5,-2 -2,-4 2,-5 2,-4 -5,-2 -2,4 -2,4 -5,-4 0,5 -5,-2 -6,-1 1,5 -1,5 3,4 -4,2 3,3 -2,3 4,2 -4,3 4,3 -4,2 0,4 4,-1 4,2 2,-5 3,2 4,-2 2,-4 5,1 -2,5 -4,3 4,3 4,-2 1,6 2,6 -3,5 -4,2 -5,-2 0,5 -3,4 3,4 1,5 -1,4 -1,5 3,3 2,-4 1,-5 4,-1 -1,-4 -4,0 1,-4 -1,-4 4,-2 4,-2 3,-4 3,-4 4,-2 -1,-4 -5,1 -2,-5 4,0 2,-4 4,2 2,4 4,2 -4,2 0,5 -4,3 -2,3 -4,2 3,4 5,-2 3,-4 4,3 2,-4 -3,-3 0,-4 5,2 -1,-5 1,-4 5,0 -1,5 5,2 4,0 5,-1 4,2 -1,5 -5,-2 -5,1 -5,-1 -3,3 -1,4 5,-1 -2,5 -4,3 -2,-3 -3,3 -2,-4 -2,4 2,5 2,4 2,-4 4,0 -1,4 0,4 4,-1 0,4 -4,4 -2,-3 -4,-3 -4,1 3,4 2,4 -2,4 4,2 4,1 -1,-5 4,0 1,-4 4,-2 0,-5 4,1 1,4 3,3 1,4 -4,1 -2,-4 -3,2 -3,4 4,2 4,1 -1,4 -5,0 -3,-3 -4,3 -4,-2 -5,2 0,-4 -4,-3 1,-5 -2,-4 -3,-4 2,-4 4,-2 -4,-3 2,-3 -2,-4 -3,3 -4,-3 -1,-4 -4,2 2,4 2,4 4,2 -1,4 -4,-1 -4,0 0,4 5,1 4,5 1,5 -5,-2 -3,-3 -5,-2 0,5 -4,-2 -4,3 -3,4 4,2 4,-2 5,2 2,-4 4,3 5,1 3,4 -6,1 -5,0 -6,-1 -5,1 -5,-1 -5,1 0,-5 -1,-5 -1,-4 1,-5 4,5 4,-3 -4,-5 2,-5 2,-4 -2,-4 -4,-3 -3,-3 2,-5 4,1 0,-6 1,-5 5,2 6,1 -2,-5 -5,-3 -3,-4 -3,4 -5,-2 -5,0 1,5 5,1 -1,6 -5,-2 1,6 -1,6 0,5 5,2 3,3 -2,5 -6,-3 1,6 -1,5 0,6 1,5 -4,2 -5,-1 1,5 -5,-1 -2,-4 -5,0 1,4 2,4 1,5 1,5 -2,5 5,0 2,4 0,5 -4,2 -1,-5 -5,-1 0,5 -5,-3 -5,1 0,-4 4,-2 4,-2 2,-5 -1,-4 -1,-5 -2,-4 0,-5 -6,0 -2,4 4,0 0,4 -4,1 -3,4 4,2 5,-3 1,4 -1,4 -4,1 -5,-2 -4,-1 -4,-2 -3,-3 5,-2 4,-3 0,-4 2,-4 -5,0 -5,1 3,4 -3,3 -5,2 -3,-3 4,-2 -1,-5 -4,1 -5,0 1,4 -3,4 -5,1 2,-5 -1,-5 -5,1 0,5 -2,6 -4,3 -5,-1 -1,-5 5,-1 1,-7 -5,1 -6,-2 0,6 -4,-2 -3,-4 -6,0 -5,0 2,4 2,4 4,-3 3,4 5,2 3,5 -5,1 -4,-3 -4,-2 -2,5 -4,-1 0,5 5,2 4,-3 4,2 2,4 -5,0 -5,2 4,3 5,0 4,4 1,-5 4,1 5,2 -4,3 -3,4 -1,4 2,4 5,0 -2,-4 3,-4 4,-3 5,-1 5,1 3,3 -5,2 -5,-1 -4,3 5,3 3,4 2,-4 4,3 2,-5 4,3 -2,5 4,0 -1,5 4,2 2,-4 3,-3 2,4 3,-3 2,-4 5,-1 -2,5 -2,4 3,4 1,5 4,-3 3,4 1,-4 -1,-4 -5,-2 4,-3 -3,-2 3,-4 1,-5 -4,1 -1,-4 -3,3 -3,-4 -2,5 -4,-2 0,5 -6,2 1,-5 -5,-2 -2,-4 2,-5 5,0 -1,5 5,-1 4,-3 -3,-4 -3,-4 -5,2 -6,-1 -2,5 -6,-1 2,-5 -5,1 -4,3 -1,-6 -4,3 -3,-2 -5,-1 -3,-4 6,-1 5,1 4,-3 5,-2 0,6 5,-3 1,-5 4,-3 4,3 -3,3 -2,6 5,-1 4,-4 1,5 4,-2 4,3 5,1 -1,5 2,5 5,1 4,-1 1,4 5,-1 -1,5 4,0 3,-4 4,-1 2,4 4,-2 -2,-5 3,-3 -3,-4 3,-4 -5,-1 -2,-4 -2,-5 -1,-5 5,1 4,-3 4,-3 1,6 0,5 -4,-2 -4,2 3,4 5,1 1,4 -2,4 2,5 -2,4 1,4 -4,3 4,3 0,5 -4,-2 0,5 -5,0 -1,-4 2,-4 -5,2 -1,-4 -4,3 -5,0 -1,4 4,1 -3,4 2,4 3,-3 3,-4 3,4 5,2 4,0 4,-2 0,6 -5,1 -2,4 6,2 -4,3 -2,5 6,-1 1,6 -1,7 -4,3 4,4 -5,3 -5,-2 0,-5 2,-5 4,-4 -5,-2 -5,-1 1,4 -1,5 -2,5 1,5 4,4 -6,1 -4,-5 -4,-5 4,-2 2,-5 -5,0 -6,-2 1,5 -4,1 -2,-4 1,-5 4,-3 2,-4 5,2 -2,4 5,1 2,-5 -2,-4 4,-2 4,4 2,-4 -2,-5 2,-4 -5,-1 -2,4 -4,-2 0,5 -4,3 -6,-1 -3,5 -4,3 -1,-5 3,-3 -4,-2 -3,-2 4,-3 -3,-3 -5,-1 1,4 -4,0 -3,3 -2,4 1,4 -3,3 1,4 0,4 3,-1 3,3 -4,2 -3,2 2,2 2,4 -4,1 -2,-3 -3,-3 -4,2 3,3 -4,3 3,4 3,-2 4,1 -2,4 -2,4 -4,-2 -4,2 -3,-3 3,-3 -4,-3 2,-5 0,-5 -4,2 -4,-2 -2,4 4,3 -2,4 -4,-2 -1,4 -3,5 -2,-5 0,-4 3,-4 2,-5 -1,-5 -4,-1 0,4 -1,4 -4,3 0,5 -3,4 4,2 2,5 2,4 4,-1 2,-3 2,-4 4,-2 2,5 -4,2 -1,4 -2,3 -2,4 -3,3 0,4 -4,-1 -4,2 -4,-2 -3,3 4,3 4,2 3,-3 4,1 4,-2 4,3 5,-1 -1,-5 -4,1 -3,-3 2,-4 4,1 5,0 -1,-4 -5,-1 2,-4 4,-3 2,4 2,5 2,-4 1,-5 6,-1 -1,5 -2,4 -2,5 -4,2 -3,3 1,4 4,-2 5,1 0,-4 2,-5 2,-4 2,-4 1,-4 -1,-5 1,-4 1,-4 3,-3 1,-4 -2,-3 5,0 -1,-3 1,-4 -4,-3 -3,-3 3,-3 -1,-4 2,-4 3,3 1,5 -2,4 4,1 3,3 -2,4 2,4 3,3 5,1 4,3 -5,2 -5,-1 -3,-2 -3,-3 -2,4 -2,5 -1,5 -1,4 1,4 2,5 -4,1 -2,4 5,0 4,1 -2,4 -5,0 -5,-1 0,5 4,1 4,0 5,-1 2,-4 3,4 3,4 3,-4 -3,-4 4,-2 4,3 1,5 -3,3 0,5 -4,-2 -1,5 4,2 4,1 -2,4 -2,3 4,3 -5,2 -5,2 -5,0 2,-4 4,-2 1,-5 -5,0 -1,-5 -4,-3 6,-2 -3,-4 -4,1 -4,1 -5,-2 0,5 -1,5 3,4 3,-5 4,3 2,6 -5,0 2,5 0,5 -5,-2 -2,-5 -5,-4 0,5 2,4 2,4 -5,1 -3,4 -1,4 5,-1 3,-3 4,-2 4,0 1,4 -2,4 -4,-2 -2,5 4,1 0,4 4,5 3,-4 -2,-4 2,-5 3,-4 -2,-4 3,-3 5,0 4,-2 4,2 1,-4 4,-2 1,4 -1,4 -5,3 -4,-2 -5,2 0,5 1,4 -5,0 1,4 5,2 5,2 5,-1 -1,-5 -4,1 -1,-4 -1,-5 5,2 4,-2 1,4 5,-2 -2,-5 1,-4 3,4 2,-4 -1,-4 -4,-2 3,-3 5,0 3,-3 2,-4 -4,-1 -3,3 -4,0 -3,3 -4,-1 -2,-4 5,0 4,-2 4,-2 3,-1 -2,-4 3,-3 -1,-3 -4,1 -4,2 -4,2 5,2 -3,3 -4,0 -3,-4 1,-5 2,-4 4,2 4,-3 4,0 4,-2 -3,-3 -2,-5 -3,4 -4,3 -5,-1 2,-5 4,-2 1,-5 -5,-1 -3,3 -2,5 -3,-4 -5,0 -2,4 -4,-1 1,-5 -4,1 -1,-5 -1,-5 1,-5 0,-5 5,2 0,6 0,5 5,-2 0,5 6,-1 4,-3 -5,-4 -4,-4 5,-3 4,4 4,2 6,0 -4,5 5,1 2,5 4,-3 -1,-5 0,-5 1,-4 5,-2 0,6 0,6 0,5 1,6 -5,-2 0,5 4,3 1,5 -3,4 3,1 -1,4 -3,2 4,2 -3,2 3,3 0,5 0,4 0,6 -4,-3 -4,2 2,3 3,2 3,2 -4,2 -4,-1 -1,4 -2,5 4,0 2,-4 5,-1 -1,5 1,5 -4,-1 -5,1 -4,0 -3,-4 -3,3 2,4 4,2 4,0 -2,5 3,4 2,-5 2,-5 4,1 -2,4 2,4 -3,3 2,4 0,6 -3,-2 -3,-4 -2,5 -4,-3 1,-4 -2,-4 -2,-5 -4,-2 0,5 -5,2 0,-5 -5,2 -1,-4 -4,0 -4,-3 -3,5 1,5 5,-2 4,4 -5,2 0,5 -5,-2 -6,1 -5,2 3,3 1,4 -5,-1 -4,-3 -4,1 -5,-2 0,-5 -5,-1 0,5 -5,-2 -5,-2 -5,-2 -5,-3 -4,-1 -5,-2 -4,-2 0,-5 4,2 3,2 4,-1 -3,-4 5,-2 5,-2 -2,-4 2,-4 -6,-2 4,-3 3,-3 2,4 3,4 4,1 -1,4 -5,0 1,5 5,0 3,4 -4,1 -5,1 -4,-3 -3,4 4,3 3,3 3,-3 3,4 6,-2 -3,-3 5,-3 3,2 0,4 4,3 0,5 5,-2 0,-5 -3,-4 4,-3 2,4 3,4 5,0 -1,-5 -3,-3 -2,-4 -4,-2 -1,-4 -1,-5 -4,1 -1,4 2,4 -1,4 -4,-3 -2,-4 -3,3 -2,-5 1,-4 5,1 -1,-4 0,-5 3,-4 -2,-5 5,0 -1,-6 -2,-5 4,-3 0,-5 2,-4 0,-4 -4,0 -4,0 1,5 0,5 -5,2 -1,-5 1,-5 -5,0 -2,5 -3,-3 -4,-3 -5,1 -4,2 -5,-1 2,5 -5,0 -3,3 2,4 4,-2 1,6 6,1 5,-3 -1,-5 -5,2 2,-5 5,-2 3,4 6,1 2,4 4,2 3,4 -5,2 1,4 2,4 -4,2 1,5 -5,0 -2,-4 -1,-5 4,0 -2,-5 2,-5 -4,-4 -2,5 -5,3 4,2 -2,4 -5,2 -3,3 -3,2 -4,3 3,4 4,3 -3,3 -5,2 0,-4 -2,-4 -4,3 -4,0 -1,4 5,1 -2,6 -3,-2 -5,-2 0,-5 -4,2 -1,-5 -4,2 -1,-5 -3,-3 -1,5 -4,-3 -3,-3 4,-2 4,-1 2,-4 4,0 2,4 -4,1 3,4 4,-1 2,4 3,-4 1,4 4,-2 4,-2 -2,-4 -3,1 0,-5 -4,0 0,3 -4,1 -1,-4 3,-4 -1,-4 -4,1 0,4 -4,-1 -4,-2 -3,-3 -4,-2 4,-2 4,2 3,1 5,-2 2,-4 2,4 3,3 2,4 5,1 2,4 2,4 3,-3 4,-3 4,-3 -3,-3 -4,0 -3,4 -2,-4 1,-4 -5,2 -3,-3 3,-3 -2,-4 -4,3 -1,-4 2,-4 -1,-5 5,-1 1,5 4,-3 0,-4 -4,-3 -5,0 -4,1 -2,5 -4,1 1,4 4,0 -2,5 -4,0 -1,5 -4,0 0,-4 -2,-4 4,-1 -1,-4 -4,1 2,-4 -4,-1 -3,4 -2,-4 3,-3 -4,-1 2,-4 -2,-4 3,-3 -2,-4 -4,3 -2,-4 -3,3 -2,-5 -4,3 -2,4 -3,3 -4,3 -3,-4 4,-4 3,-5 4,-3 -3,-4 3,-3 6,0 -2,4 5,2 3,-4 3,3 -1,4 4,-1 4,-2 3,-4 3,-4 0,-4 -4,-1 -2,5 -3,4 -3,-5 3,-4 -1,-5 0,-5 -5,-1 0,5 0,5 -2,5 -3,-3 -1,-5 1,-4 -5,0 -2,5 2,4 -6,1 -4,4 -1,6 -2,5 -3,-4 -5,-1 1,-4 5,0 -1,-4 -2,-5 4,-3 2,4 4,-3 2,-5 1,-4 4,-2 5,1 4,-3 -1,-4 -4,2 -4,-1 2,-3 -1,-3 3,-3 2,3 4,-3 -3,-3 3,-3 0,-4 -4,2 -3,3 -2,-4 0,-4 3,1 4,-1 3,-3 4,0 3,3 -4,1 0,4 4,0 4,-2 4,0 4,1 -2,5 -4,-2 -3,2 -4,0 -3,1 4,3 -4,2 -3,2 3,4 0,5 5,0 1,-5 -2,-3 4,-2 2,-4 3,3 -2,4 0,5 1,4 -4,3 -1,5 5,1 2,-4 5,-2 0,5 -3,3 4,2 -3,3 5,2 0,4 -1,4 -4,-1 0,-4 -4,1 -1,4 -2,3 -4,2 -1,4 5,-1 -2,4 -3,3 1,5 4,2 3,3 4,-2 2,-4 -2,-4 -3,4 -4,-2 2,-4 3,-4 -1,-4 4,-2 1,4 4,-2 0,4 -4,2 3,3 1,4 4,-1 0,-5 1,-4 4,2 -2,4 2,3 3,-3 2,-5 2,3 4,2 3,-2 3,-2 2,-3 -5,0 -4,1 1,-5 -4,2 -1,-4 3,-3 -3,-3 -3,2 -5,2 3,3 0,3 -4,-2 -3,-3 0,-4 4,-2 4,-2 -3,-3 -4,2 -2,-4 3,-2 1,-4 -5,1 1,-5 -3,-4 -5,-1 2,-3 -3,-3 5,-3 -3,-4 2,-5 2,4 4,2 4,-1 1,-6 -5,1 -3,-4 4,-2 4,-1 4,-2 1,4 3,-4 4,1 -2,4 1,4 -2,4 -2,-4 -3,3 2,4 -3,2 -4,3 -4,-1 -2,3 3,4 3,4 5,4 -1,4 3,4 2,-4 1,-5 4,-2 0,-4 -2,-4 -2,4 -4,2 -4,-3 3,-3 3,-2 2,-4 4,1 1,-3 0,-4 4,1 -2,-4 -1,-4 2,-4 -3,-3 -3,-2 -3,-2 -3,2 -2,-4 5,-2 0,-4 3,-3 2,4 0,4 3,3 3,3 3,3 2,-4 2,4 -2,4 -4,-1 -1,3 3,3 4,0 4,0 -1,3 1,4 -4,2 -1,-4 -3,-1 -1,4 -3,2 -2,4 4,0 3,-2 2,4 2,3 5,2 4,-2 4,2 4,-1 3,0 0,-4 -1,-3 -3,3 -4,0 -4,-2 -4,2 -2,-3 4,-2 5,-1 4,1 4,-2 -3,-3 4,-2 1,-4 -5,1 -4,0 0,4 -4,1 -1,-4 2,-4 3,-2 4,-1 3,1 4,1 2,-4 -4,-1 -5,-2 3,-3 -3,-2 -4,2 -1,4 -3,2 -3,3 -4,-1 2,-4 0,-4 4,1 1,-4 -3,-3 -4,2 -4,-1 -5,1 -2,-4 -1,-4 -1,-5 -3,-4 -3,4 -2,-4 -3,-3 -4,-1 0,-5 -4,2 -5,-2 0,4 4,3 -5,2 -2,4 -3,-3 1,-5 0,-4 -4,-2 -1,4 -1,4 -2,4 -3,3 -1,4 -4,2 2,4 4,2 1,-4 2,-5 3,-3 3,4 4,0 4,-2 1,-4 5,4 0,-6 4,2 2,4 -2,4 -4,2 -4,-2 -4,2 -4,2 -5,-2 -1,4 3,3 4,0 4,-2 4,-1 4,4 -4,2 -5,1 -3,4 -2,-4 -4,1 -4,0 1,-4 -4,1 -2,-3 -4,0 -4,-1 2,-4 -4,-2 3,-3 4,-3 1,-5 -6,2 1,-6 -5,1 -2,-4 5,-2 2,-5 3,3 2,5 4,2 1,-5 -2,-4 5,-2 1,-5 -2,-4 2,-4 2,4 3,3 -1,4 3,3 2,-5 2,4 5,2 -1,-5 -1,-4 1,-4 5,0 -2,-4 -1,-4 -2,-3 -3,1 -4,-1 -2,3 3,3 4,0 -2,4 -1,3 -4,-3 -2,-4 -3,-3 1,-4 -5,1 2,5 -3,1 -2,3 -4,1 3,4 2,4 -5,2 -1,-4 -5,1 2,-4 -5,-2 -4,2 -3,-2 3,-4 4,-2 4,2 4,-1 3,-2 0,-4 -4,1 -4,0 -5,0 -5,0 -5,-1 0,3 2,3 -6,-2 0,5 4,3 3,4 2,5 4,-3 3,4 -4,3 -4,3 -3,4 5,2 -1,5 5,0 2,4 -5,1 2,4 -1,5 4,0 0,4 -3,1 -4,-1 -2,-4 -3,3 -2,-3 2,-4 4,-1 -3,-5 -1,-6 -5,2 0,4 2,4 -3,3 -1,5 3,3 2,2 2,4 2,-4 2,4 -2,3 -3,2 2,4 3,-3 1,4 -2,4 -4,-2 -3,-1 0,-3 -4,2 -1,3 4,2 -3,3 -4,0 2,4 4,1 3,-3 2,-4 3,2 0,4 -4,2 -1,3 -2,4 -3,-3 -3,4 -4,2 -1,4 2,4 -5,0 -3,2 4,2 -1,4 -4,-1 1,6 -1,4 -2,5 4,2 2,-3 2,-4 0,-4 5,2 3,3 -4,3 -3,5 6,2 -5,4 5,4 4,5 5,-2 -1,-4 -4,-3 6,-2 4,3 5,0 1,-5 -5,-1 3,-4 5,1 3,4 -2,4 0,4 3,4 -4,1 -4,-3 -5,1 -3,5 -4,3 4,4 5,2 0,-5 1,-5 4,3 5,0 3,-2 4,1 2,5 -5,-1 1,4 -4,1 -2,-4 -4,2 -1,5 4,1 -2,4 5,0 1,-3 4,2 -1,4 4,-1 0,4 -5,2 -4,2 0,-5 -3,3 -3,-3 -4,-3 1,-4 -5,0 1,-4 -6,-1 -4,-5 -3,-4 -4,-5 -3,-3 -4,-4 1,-5 -6,-1 -4,-6 -3,-4 5,-2 1,-4 -4,0 -5,1 -2,-5 4,-1 2,-4 3,4 2,-4 -3,-3 4,-2 1,-4 3,3 2,-4 1,-4 3,-2 3,-2 -2,-4 0,-3 -4,0 -3,3 4,2 -4,2 -4,-2 -1,4 3,3 -4,1 -2,4 -4,-1 0,4 -3,4 -4,1 -2,-4 4,-2 1,-5 -4,-1 -3,3 -3,-5 1,-5 4,2 3,-2 3,3 4,2 2,-4 -4,-2 4,-2 -3,-3 4,-2 3,2 4,-2 -3,-3 1,-4 4,0 0,4 3,-2 1,3 4,-2 -2,-4 3,-1 3,-3 -3,-3 -3,-3 3,-2 3,3 3,3 2,-3 -1,-3 -4,-2 -3,-3 -4,2 -2,-4 -5,-1 2,5 1,4 -2,4 4,0 3,3 -4,1 -4,0 -4,0 -2,3 -2,-3 -3,3 3,3 -3,2 -4,2 -1,4 -5,1 -4,0 -3,3 -2,-5 -2,-5 4,-2 -1,-4 -4,0 2,-5 -4,-1 2,-4 3,-3 1,-5 -5,2 -3,3 -2,-6 -1,-6 4,-2 1,5 4,-1 4,1 0,-5 -4,-2 3,-3 -2,-4 5,-1 1,5 3,4 -1,4 -2,5 -1,4 1,4 -4,3 2,4 4,-2 1,4 -3,3 1,4 -2,4 5,-1 1,-5 4,0 0,-5 -3,-3 -1,-5 -1,-5 5,2 4,-2 0,4 -3,3 3,2 4,-1 4,1 1,-4 -4,-2 3,-3 -3,-3 -4,-2 -5,1 -4,-1 2,-4 2,-4 -2,-4 -3,-3 4,-3 0,-5 -5,2 0,-5 -5,3 -1,-5 -4,2 0,5 -5,-2 0,6 1,4 -5,2 -2,-5 2,-4 -2,-3 -1,-5 0,-5 0,-4 4,-2 5,-1 1,4 -5,2 0,5 5,-2 5,-2 5,1 4,0 4,3 5,0 -1,4 5,2 2,-5 5,-2 4,4 -5,2 4,3 -5,2 -2,5 -3,-4 -5,-1 -2,5 5,1 -2,4 -2,5 5,0 4,1 -1,-5 5,2 0,-4 2,-5 5,-1 -2,6 3,4 -4,3 3,3 4,-2 2,-5 -2,-5 1,-6 -3,-5 5,-1 3,4 2,-5 3,-4 -2,-5 -2,-5 -5,-2 -6,1 2,5 5,0 2,5 -6,1 -5,-2 -2,-5 -5,1 -4,2 -1,-4 4,-2 5,-2 -3,-3 1,-4 5,2 4,1 4,-3 2,-5 -6,1 -6,0 -6,-1 -2,5 -2,5 -5,4 0,5 -4,-2 -4,-1 -5,0 -4,-2 3,-4 4,1 5,0 4,-2 3,-4 2,-5 -5,1 -5,0 2,4 -4,1 -4,-1 2,-4 -4,-1 -5,0 2,5 -2,4 -5,-1 2,-4 -2,-4 -5,0 2,4 -1,5 -5,2 0,-5 0,-4 0,-4 4,-3 -4,-2 0,-4 4,2 1,-3 -3,-3 -2,0 1,-4 4,2 0,-4 -4,-2 5,-2 -4,-3 4,-2 -3,-3 4,-2 -3,-3 4,-2 -3,-3 4,-2 -3,-3 4,-1 -3,-4 4,0 2,-4 -4,1 -1,-4 3,-1 3,0 0,-3 -4,-1 2,-4 4,2 0,-4 -2,-3 4,-1 -2,-4 4,0 2,-5 -4,0 2,-4 4,0 -2,-5 2,-4 2,4 2,-4 -2,-5 5,0 -2,-4 5,-1 -2,-4 5,-1 -2,-4 5,-1 -2,-5 6,-1 -2,-5 5,-2 3,-5 4,-5 5,-4 3,-7 4,2 2,-6 5,-4 4,-3 3,-4 5,-1 0,-5 6,0 0,-4 5,-1 5,-4 6,-1 -3,-4 6,-2 5,1 0,-5 6,1 1,-4 4,2 2,-5 4,2 4,-2 -3,-3 4,-1 4,-2 0,4 4,-1 4,-1 -1,-3 -3,-1 5,-2 4,-1 -1,4 4,-1 1,-4 4,3 1,-5 4,3 2,-4 4,3 2,-5 3,4 3,-5 3,3 4,-4 2,4 4,-3 5,-1 4,2 2,-4 3,4 4,-1 -2,-4 5,0 4,0 -1,3 -2,2 5,1 4,1 -2,-4 0,-3 4,0 1,4 1,4 3,4 -3,3 -3,-3 -4,-1 0,5 4,2 2,4 -1,4 -5,-4 0,6 0,5 5,-2 5,-1 4,0 -2,5 -4,2 -4,-1 -4,3 4,2 4,1 4,3 1,-5 4,3 3,-4 -3,-3 2,-5 2,-3 -1,-4 -5,1 -4,-1 -1,-5 3,-3 2,4 4,-5 2,4 4,-3 -2,-5 5,1 -2,-5 -5,-1 -3,3 -3,3 -2,-4 2,-3 -5,-1 0,-4 4,0 4,1 5,1 4,0 3,1 5,0 3,2 -1,5 -5,-2 1,6 -3,5 -4,2 -1,4 1,5 -3,4 3,5 5,2 -3,3 -5,0 -2,3 3,3 4,-1 4,-2 1,5 0,4 -3,3 -2,-5 -5,1 2,4 -5,0 -3,-4 2,-4 -3,-3 -3,3 -1,4 -3,3 -5,-2 3,-4 1,-4 -4,-1 -4,-2 1,6 -1,4 0,5 0,4 5,-2 -1,5 -4,2 0,5 0,4 3,3 -3,4 0,5 6,-2 1,-4 4,3 2,4 5,0 5,-2 5,-3 4,0 -1,-5 -2,-4 -3,-3 0,-4 -5,-2 0,4 -4,-1 0,5 2,5 3,-4 4,3 -3,4 -4,2 -4,-2 -2,-4 -5,-1 -2,-3 -2,-4 4,-1 4,4 0,-4 1,-4 -4,-1 2,-4 4,-2 2,4 4,-1 4,2 4,-1 4,-1 3,-3 3,4 4,0 5,-2 0,4 5,-2 5,-1 1,4 4,2 4,0 4,-2 -3,-4 -4,1 -1,-5 4,-1 -2,-5 -1,-5 2,-5 5,0 -2,5 1,6 2,5 1,4 4,-2 2,3 -3,4 2,3 -5,1 -4,3 4,2 4,-2 4,1 2,-4 -1,-4 1,-4 2,-3 -4,-2 -4,-3 5,-2 4,3 3,-3 -3,-3 -4,-3 -4,2 -4,1 1,-4 3,-3 5,-1 4,1 3,4 3,4 2,-4 -3,-3 3,-1 4,0 -2,-4 -3,-3 -3,3 -5,-1 -5,-1 -2,-4 -1,-5 -5,-1 -3,4 4,2 1,5 -5,-2 -5,0 0,-5 2,-6 -5,0 2,-4 3,-3 -5,-4 -4,0 -5,0 -4,3 -4,1 2,5 4,2 2,-5 6,-1 -2,5 2,5 1,5 1,5 -1,4 -5,1 3,4 2,5 -2,4 -5,0 2,-5 -5,0 2,-4 -3,-4 -3,4 -2,5 3,3 -4,2 -4,-3 1,-5 -4,-3 4,-2 -4,-3 5,-2 3,3 2,-4 -1,-5 4,1 3,4 4,-1 -1,-4 -1,-5 -4,1 -4,-2 -5,1 -4,3 3,3 -4,2 -5,-2 -3,-3 4,-2 -2,-5 5,-2 2,4 4,-3 -1,-5 -4,-1 3,-4 5,-1 -2,-5 1,-5 4,2 2,5 4,-5 2,4 5,-2 5,2 2,4 3,-3 4,-16 -2,-4 -4,2 -1,-5 -5,-2 1,5 -5,-1 -5,-1 -5,-1 -5,-1 2,-3 -3,-4 -1,-4 -4,2 1,5 -1,3 -5,-1 0,-4 -1,-4 -4,2 -1,5 -6,0 2,-5 -3,-4 -1,-5 0,-4 4,-1 6,2 -5,2 2,5 5,-2 4,2 4,-1 2,-2 -2,-3 -4,1 0,-3 4,-3 -2,-3 -5,2 -4,0 -4,-2 -5,1 2,-5 2,-4 2,-4 3,4 -1,4 5,2 1,-4 4,1 0,-4 -4,-1 2,-4 4,-1 2,3 2,5 -1,4 0,4 4,-2 2,-4 0,-3 4,1 -1,-5 6,2 4,-2 -2,-5 -3,2 -4,-2 -4,1 -2,4 -2,-4 2,-5 -4,1 -4,0 -1,-4 5,-1 2,-4 4,3 2,-4 -3,-4 1,-4 2,-4 -4,-3 -2,3 -1,5 -2,4 -3,4 -4,-3 -1,-4 4,-1 1,-5 -5,0 -3,-5 -4,-2 -3,-4 5,-1 5,2 3,5 5,1 2,-4 -4,-2 3,-4 2,-5 1,-5 5,-2 -1,5 0,4 3,2 3,-3 3,-3 -4,-1 1,-5 4,1 -1,-5 5,-2 0,4 1,4 4,-2 4,-1 4,2 4,2 0,-4 4,2 0,-4 4,-2 -4,-2 -4,1 -4,2 -4,-2 -4,1 2,-4 -4,-1 -3,-3 -3,3 -4,0 2,-5 4,-2 -4,-3 4,-2 4,2 4,0 -2,5 4,2 0,-3 3,-3 4,1 -3,4 -1,5 4,-1 2,-4 3,-3 4,2 -4,3 4,2 4,-1 1,-4 5,2 -2,4 -3,3 0,4 -4,2 -2,4 1,3 4,2 -3,3 4,1 -2,4 -3,3 -4,0 -2,-3 4,-1 -3,-3 2,-3 -2,-4 -3,3 -3,-3 -2,3 -4,0 1,-5 -4,1 -2,4 -3,-3 -2,5 -4,3 2,4 -3,2 -4,-3 -5,-2 1,4 3,3 4,3 0,5 -3,4 4,3 -2,6 -3,4 4,1 4,-2 1,-5 2,-4 -2,-5 3,-4 -4,-2 3,-4 4,1 4,0 4,-1 -2,-4 -4,0 -5,-2 4,-3 4,1 4,-1 4,1 -2,3 2,4 -2,4 4,0 2,4 -4,0 0,5 2,5 4,-4 5,2 5,1 3,5 4,-3 -2,-4 -3,-4 -3,-4 -2,5 -4,-3 -2,-5 4,0 3,-3 3,-4 2,-4 2,-4 -4,-1 1,-4 -5,-1 4,-3 2,-5 3,-4 3,-4 3,4 5,-1 5,2 5,2 5,2 5,1 5,2 4,2 -2,4 -5,-2 2,5 4,3 3,-4 2,-4 5,1 3,2 4,2 4,2 5,2 0,5 -3,4 3,3 -3,3 4,2 2,5 0,4 -4,-1 -1,-4 -4,3 -1,-6 -5,-1 1,-4 4,-1 -2,-5 4,-3 -4,-2 -5,-3 -4,-3 -2,4 2,3 4,2 -1,5 -4,-2 -5,0 1,-4 -5,-1 -4,2 -4,-1 3,-4 -5,-1 2,-4 -2,-5 -4,4 -1,-6 -5,-1 -1,6 -4,-3 -1,-6 -5,3 -3,-4 -3,5 2,4 2,4 3,-4 3,3 3,4 5,0 4,2 2,4 1,5 4,0 4,0 3,-2 2,4 -2,5 -3,-3 -2,4 -3,-3 -5,0 2,5 0,5 -5,-2 -1,-4 -5,-2 -3,-3 3,-4 4,3 2,-4 -1,-4 -5,0 -5,-1 -2,-4 -5,1 -2,5 4,0 4,3 -6,2 -5,-1 1,4 3,3 5,-2 3,4 -5,2 2,4 0,5 5,-2 0,-4 4,-2 1,4 3,4 4,-2 1,5 -3,2 -2,4 -4,2 -2,-4 4,-2 -3,-3 -5,2 -4,3 -3,-4 -2,5 -5,2 -1,-5 -6,-1 3,-4 -5,-2 -3,4 -4,3 -5,1 4,4 2,5 -6,0 -4,-3 -2,-5 1,-4 2,-4 5,1 -2,-5 -2,-5 1,-5 -5,0 -3,5 3,4 -3,4 -2,4 0,5 1,4 2,5 4,3 4,2 5,-1 5,0 2,-5 -2,-6 6,2 3,5 -3,5 5,2 4,-3 4,-1 -4,-5 5,-2 5,-2 2,4 -4,2 3,3 4,0 2,-4 4,-1 4,-2 0,-4 4,-1 3,-2 4,2 -3,3 -4,2 -2,4 4,2 3,-3 3,-3 1,4 -2,4 -2,3 -1,4 -4,-1 0,-4 -5,2 1,-4 -4,-2 -2,4 -1,3 -4,-1 1,5 1,5 -3,1 -5,1 -5,1 -5,-1 2,-3 4,-2 5,0 1,-4 -2,-4 -4,2 -4,2 -4,3 -4,-3 -5,-1 2,5 3,4 -3,4 -5,2 1,-5 -5,1 -1,-5 4,-2 -2,-5 -5,3 -5,-3 -5,3 -5,0 0,-4 5,-2 -4,-3 -5,2 -1,5 -3,-3 -2,3 1,3 4,1 3,3 4,-1 4,2 3,-3 4,3 -3,4 4,2 4,3 -3,3 -4,-2 -4,-1 -2,-4 -4,-2 -3,1 -3,-2 -4,0 1,-3 -4,0 -3,-1 1,-3 -4,2 1,4 1,4 2,-2 3,3 -3,2 2,4 3,3 5,2 3,-3 -4,-2 -4,-2 2,-4 3,2 5,0 2,4 4,2 4,2 3,3 4,-3 3,-3 2,3 2,4 -2,4 -2,-4 -4,3 2,5 5,1 3,2 2,-3 -1,-4 2,-5 2,2 1,4 1,5 -3,3 4,2 3,-2 4,1 -2,3 4,1 5,2 4,1 3,3 2,-4 -3,-4 -4,0 -5,-1 2,-4 -4,-2 -3,-3 -2,3 -2,-4 -1,-4 -1,-4 -3,-3 -5,1 0,-5 5,-1 2,-3 5,2 -2,4 2,5 3,-3 5,1 2,-3 -5,-2 2,-3 4,-1 4,0 3,-1 3,-3 0,-4 -1,-3 5,0 4,2 -4,3 4,2 4,-1 1,-4 4,3 1,-5 0,-5 2,-4 1,-4 0,-4 3,1 4,2 4,-2 4,2 -1,-5 -4,-1 -3,2 -4,-2 -4,-1 -1,-3 -3,-2 -4,-2 -4,0 1,-4 1,-4 4,-2 2,4 -2,3 4,1 3,3 3,3 4,1 -2,-4 2,-4 -3,-4 -2,4 -3,-3 0,-4 4,-3 -3,-2 3,-3 4,2 1,5 1,4 4,-2 0,5 -2,4 0,4 4,0 4,-1 -3,-3 4,-2 3,2 5,0 4,-2 3,2 1,-4 2,-4 -6,1 1,-4 -3,-3 4,-2 0,-4 -4,1 -2,-4 1,-5 4,3 5,1 1,5 5,-1 -2,5 -4,2 4,2 2,4 4,-3 -1,-4 2,-3 5,4 4,3 -5,3 1,5 6,0 3,-5 4,3 -2,5 -4,3 -6,0 -5,-2 -2,-5 -3,4 -3,-4 -3,3 1,4 -5,0 -4,0 1,4 -4,0 -1,-4 -4,2 -4,3 1,4 4,-2 5,2 4,0 3,-4 2,4 0,4 4,0 -1,4 3,3 3,-5 3,3 2,4 4,2 -2,5 -4,-2 -3,-4 -2,4 -4,-2 -3,-4 -2,-3 -5,1 2,-5 -5,0 -4,-2 -4,3 1,4 4,-1 -1,5 -6,1 -4,2 -2,4 -5,-1 1,-4 -1,-4 4,-3 1,4 4,-3 -1,-4 -4,-2 -4,2 -4,-2 0,4 -1,4 0,4 -1,4 -1,5 -4,1 -3,-1 -4,1 2,4 -4,2 -2,-4 -3,-3 -1,4 -4,1 -4,1 0,4 5,0 4,-2 2,4 1,4 4,-2 1,-4 3,2 2,-4 3,-3 2,4 4,1 5,1 4,0 3,-3 -3,-2 -5,0 -5,-2 1,-4 4,0 4,2 3,-2 4,-2 2,-4 3,4 3,-4 2,-4 5,1 -2,5 5,0 -1,5 5,0 1,-4 5,1 4,2 -5,4 0,6 4,2 1,-5 5,0 -1,-4 2,-4 5,1 -2,4 1,5 -1,5 -5,-2 -2,4 4,3 2,5 1,5 -4,2 -2,-4 -3,-5 -3,4 -6,-1 -5,-1 -2,-5 5,0 5,2 1,-5 -5,-3 0,-6 -5,1 0,5 -4,2 -1,-4 -5,1 2,-5 4,-2 -3,-4 -5,2 -5,0 1,3 3,2 -3,4 -3,3 2,3 4,-2 4,1 -1,5 4,-2 1,5 1,5 5,0 6,1 5,1 3,2 1,4 4,-2 5,-1 2,5 2,4 -4,1 -3,-4 -4,1 2,4 3,4 4,2 2,-4 3,4 1,4 -5,1 -4,-1 -3,-2 -2,4 -3,-3 1,-4 -2,-5 -3,3 0,4 -4,-1 -2,-4 4,-2 2,-5 -5,1 2,-5 -5,-2 -2,4 -3,-4 -5,1 -2,5 -5,0 -4,1 2,4 -4,-1 -3,3 -2,-3 -2,-4 -2,-4 5,-1 2,4 4,-3 -2,-4 5,-1 2,4 3,-4 -1,-4 -4,-2 -1,-4 -4,2 -2,-4 -3,-4 -2,4 -3,-3 -4,-2 -1,5 -4,-1 0,-5 -4,2 -4,3 -4,1 2,4 2,3 4,0 -1,-4 5,1 5,1 4,-3 1,5 4,-2 5,3 -4,2 -4,2 -4,2 -2,-4 -5,0 2,4 -4,1 -3,-3 -2,4 3,2 5,1 4,-1 3,3 1,4 -4,-2 -4,1 -4,-2 -4,-1 -4,-2 0,-4 1,-4 -4,-3 -1,-4 -2,-4 -1,-5 -3,3 -3,-3 -4,-2 -2,3 -5,-2 -3,3 4,2 4,2 4,-1 -1,5 3,0 3,-2 1,4 2,4 3,3 -1,4 -3,3 4,3 3,-1 2,4 3,-2 2,5 2,-4 3,3 -1,4 4,2 1,-4 1,-4 3,3 4,0 -1,4 -4,0 -1,4 3,2 3,3 3,-2 -3,-3 4,-1 0,-4 4,-2 0,4 3,4 4,-1 1,-4 -4,0 0,-4 4,-1 0,-4 4,1 3,-4 5,3 -3,3 4,3 1,5 -5,-2 -4,-2 0,5 4,2 5,2 4,-1 2,-3 4,3 5,2 4,-2 4,2 -3,3 -4,2 -2,4 -4,-2 1,-4 -4,-1 -3,2 2,4 -2,4 -1,4 4,-1 3,-3 5,2 -3,3 4,3 2,4 -4,1 -3,-3 -2,4 -3,-3 2,-4 -4,1 -4,0 -2,-4 -2,-4 4,0 1,-4 -5,-1 3,-3 -4,-2 -3,-1 -4,-2 -4,2 -4,1 -3,-3 -2,5 3,3 4,3 1,-4 4,-2 4,2 0,4 -4,-1 -1,4 3,4 2,-3 3,3 -2,4 4,0 0,4 5,-1 -1,5 4,-1 -1,5 4,-2 4,2 0,-4 3,0 4,-1 3,-1 0,4 3,-2 4,0 1,5 -4,0 -5,1 -4,-2 0,4 -4,0 -5,0 3,4 4,1 0,5 4,-1 1,-4 4,1 -1,-4 4,0 4,0 3,4 2,-4 -1,-4 -1,-4 -2,-4 0,-4 -4,1 -4,0 -1,-4 2,-3 4,2 0,-5 4,1 1,4 4,-1 0,-5 4,2 1,-5 4,-2 5,0 2,-3 4,-2 1,-4 -3,-3 -3,3 -4,4 -2,-4 -5,0 1,5 -5,-1 0,5 -5,-2 0,4 -5,-1 -4,3 -3,4 -2,-4 2,-4 4,-2 3,-3 1,-4 4,2 0,-4 4,0 -2,-5 -2,-5 -2,-4 -1,-5 -2,-4 -2,-5 5,1 3,4 2,-5 4,3 0,5 -5,2 2,4 2,5 2,5 4,1 1,-5 5,4 2,-5 4,3 2,-5 4,-1 -2,-4 2,-5 0,-4 5,1 3,-3 -5,-2 -4,-1 -5,-1 1,5 -4,0 -2,4 5,2 -2,5 -4,-2 -2,4 -6,0 2,-4 1,-5 -1,-5 4,0 3,-4 3,-4 -1,-4 1,-5 -5,1 -2,-3 -4,-1 -4,0 -4,3 -4,0 0,5 5,0 5,2 -1,-5 4,0 2,3 3,3 -4,3 -5,2 -4,-3 -5,1 -6,0 1,-4 -4,-3 4,-4 0,-5 4,0 4,1 2,-4 -1,-3 -3,-3 -2,4 -5,-1 3,-4 2,-5 4,2 1,-4 4,2 3,-3 -3,-3 -3,-4 -2,4 -4,1 1,-4 -3,-3 0,-4 -5,-2 1,5 1,5 0,5 0,4 -5,-2 1,-4 -1,-4 -1,-5 -4,3 -2,-4 -2,-4 -4,0 -4,-2 -2,-3 4,-2 4,1 5,2 3,4 2,-5 4,1 3,-3 4,-3 3,-4 2,5 -2,4 -4,3 5,2 -1,4 5,0 1,-4 0,-5 0,-5 5,4 0,5 5,-1 4,4 -5,1 -5,1 -1,5 5,-1 -2,4 2,4 -2,4 3,3 3,-4 1,4 -2,4 -5,1 -2,-4 -5,0 2,3 1,4 4,2 5,-1 2,3 4,0 3,-3 -4,-2 1,-4 4,1 4,3 5,-2 -3,-3 -3,-2 -4,-1 -3,-3 -1,-4 -4,-3 1,-5 4,3 2,-4 4,4 -2,4 2,4 4,-4 1,6 4,-2 0,5 4,-1 3,4 -4,2 3,3 5,-2 3,3 3,3 -3,3 -4,2 0,-5 -4,2 -5,1 1,-5 -4,0 -2,4 -4,-1 -4,2 -1,4 0,4 3,2 4,-1 -2,-5 4,0 5,1 -2,4 -1,4 4,1 4,0 4,2 2,-4 -4,-2 -4,-1 2,-4 5,2 4,1 -1,-4 4,0 1,-4 3,3 0,3 -2,3 4,2 2,-4 3,4 -1,3 -1,4 4,0 2,-3 1,5 3,2 -2,4 5,-1 -2,5 -4,1 -3,-2 -3,-2 3,-3 -2,-2 -4,2 -3,2 -1,-4 3,-2 -1,-4 -4,1 2,-4 -4,0 -2,4 2,5 1,4 -4,0 -3,3 -1,-4 2,-4 -4,-2 -4,0 2,4 -5,0 -3,3 -4,3 4,2 4,-2 4,-1 1,5 -4,1 -4,1 2,3 2,3 3,-3 4,-1 2,-4 3,3 -1,4 -4,2 -3,2 -4,2 0,3 4,0 -1,4 -4,0 -4,0 -3,-3 4,-1 0,-4 -3,1 -2,-4 4,-1 -2,-2 -2,-4 -4,3 -1,4 2,4 0,4 -1,4 -3,2 -3,4 1,4 5,2 -4,3 2,4 4,-2 4,-3 3,-4 -5,-1 -5,-2 3,-3 3,-3 3,4 4,-2 1,4 3,-3 4,-1 4,0 3,-3 4,-3 1,4 1,4 1,5 -2,5 5,-1 0,4 -4,2 -4,-1 -5,-2 3,-4 2,-4 -1,-4 -4,3 -5,0 2,5 -4,3 -2,-4 -4,3 1,4 -2,4 -3,-3 -2,5 -4,-2 -2,4 -3,-3 -3,-4 -4,0 2,-4 -4,-1 3,-4 -1,-4 -4,1 -2,5 0,4 -4,-1 -4,1 0,4 5,0 4,0 -2,5 -5,0 1,4 4,2 2,4 3,4 -3,4 -3,-3 -3,-5 -3,5 2,4 3,4 2,4 -5,1 2,4 -1,4 -4,-3 -4,-4 -3,-4 6,-1 -2,-4 -1,-4 -3,-3 -2,6 -3,-3 -4,4 3,4 3,5 3,5 3,2 1,6 3,-3 3,4 2,4 -5,0 2,5 6,0 4,0 5,0 -2,4 -5,2 -5,-1 2,6 5,1 4,-3 3,5 3,-5 -2,-4 3,-4 2,4 2,4 -2,4 -1,5 -5,2 -4,-3 -5,0 3,6 1,6 3,4 0,6 1,5 5,-2 5,0 4,1 0,-5 0,-4 -3,-3 -2,5 -5,0 1,-6 -4,-3 4,-3 5,2 5,2 0,-5 -5,-2 3,-3 -1,-4 5,0 2,-4 -5,-1 -2,-4 -2,-4 -3,-3 4,-2 4,-2 2,-5 4,-2 -2,-4 -5,2 -2,5 -2,-4 -3,3 1,4 -5,0 -1,4 -4,-2 -5,-1 -3,-3 -1,-4 2,-4 2,-4 3,-3 -2,-5 5,1 3,-3 -4,-2 2,-5 4,3 1,-5 -4,-3 -4,-1 -2,-4 0,-5 4,0 2,5 4,2 5,-2 4,1 0,5 -4,-1 0,4 0,4 4,-1 4,-3 2,-3 3,-3 -4,-1 -2,-4 5,0 4,-2 -2,-4 4,-2 2,4 2,4 2,-5 2,4 4,-2 6,-2 -1,5 3,3 2,-4 1,-3 3,-3 -5,-2 1,-4 4,1 -1,-5 -2,-4 -3,3 -2,-5 -1,-5 -2,-4 1,-4 5,-2 -3,-2 -2,-3 -3,3 -1,4 -4,2 -4,2 -3,2 0,-5 3,-2 4,-2 0,-4 4,-2 -3,-3 -3,-3 4,-1 4,-1 -1,4 4,2 1,-4 3,3 0,4 3,2 2,-4 3,3 2,-5 2,-4 3,4 3,4 -5,1 -2,5 -5,0 1,4 -4,0 -4,2 4,2 -2,4 5,1 2,-4 4,-3 3,-3 2,-4 5,1 -2,4 -3,3 5,2 3,-4 2,5 4,5 -1,4 4,2 3,5 -4,1 2,4 5,0 2,5 2,5 2,5 -5,-1 -1,4 0,4 5,-1 3,-2 2,4 1,4 -4,0 -3,3 -2,-4 -3,3 -2,-3 -2,-4 -2,-3 -3,-3 2,-4 4,3 1,-5 0,-5 -4,1 -4,2 -3,4 -4,2 -2,5 -3,-3 -4,-2 -2,-4 4,-2 2,4 4,-2 3,-3 -5,-2 -4,-2 4,-3 4,2 5,1 3,-2 -3,-3 -4,-1 5,-4 -4,-3 1,-5 -3,-2 -2,4 -5,-2 2,-3 -4,-2 -3,3 1,5 -4,-1 1,5 4,1 4,-3 4,3 -3,2 -4,3 -4,-1 0,5 1,4 -5,0 -2,4 3,3 -3,4 -2,-3 -4,2 -2,5 0,4 -5,2 -2,5 -4,-3 -5,1 -1,-4 4,-2 4,0 0,-5 4,2 2,-4 -3,-2 4,-3 -3,-3 -4,2 -2,4 -3,-3 -4,-2 0,5 3,4 -4,2 -3,-3 -2,4 2,4 -5,0 -5,0 -2,3 -3,-3 -2,4 -3,2 -3,4 -4,3 -2,6 4,2 4,-2 -2,-3 5,-1 0,-4 3,-3 3,4 2,-4 3,2 1,-5 5,0 -1,4 3,4 2,4 3,-3 -2,-5 5,0 5,2 -3,3 -2,5 -4,2 -4,1 3,3 -4,3 -3,-4 -2,4 -4,2 1,3 4,-1 -1,4 4,1 2,-3 3,-3 3,-3 2,-4 4,3 1,5 -3,-1 -2,4 -4,2 -3,3 -2,4 -1,4 -4,1 3,3 -1,4 1,4 -3,3 1,4 4,-2 3,-4 0,-4 0,-5 1,-4 2,-5 3,-3 4,-3 4,2 1,-4 3,-1 2,3 -2,4 -2,4 -4,2 -2,-4 -3,4 -2,4 0,5 -1,4 4,1 5,-1 -3,-4 1,-4 5,-1 4,-1 3,2 -1,5 -5,-2 1,5 -2,5 -4,0 -5,2 -4,-2 -1,5 4,2 1,4 -1,4 -4,-4 -5,-1 0,-5 -4,2 -2,4 3,3 4,1 4,3 -5,2 -5,2 -1,-5 -4,-3 -5,0 -6,1 1,5 4,0 5,0 2,5 -5,0 -5,1 1,5 4,0 5,0 2,4 5,2 5,1 1,5 -5,-1 -4,-2 -5,1 -2,-4 -5,0 1,6 4,3 -4,3 0,5 1,4 5,-1 -1,-5 3,-3 2,-4 5,2 3,2 5,-2 4,1 3,-3 -4,-3 -2,-5 5,0 0,-5 3,-4 -2,-4 -5,3 -1,5 -5,1 -5,-1 -3,-3 4,-3 5,2 0,-5 5,-2 4,-2 2,-4 -1,-5 1,-5 5,1 -1,4 4,2 2,-4 0,-5 0,-5 5,2 -1,-5 2,-5 4,1 5,0 3,2 5,0 2,-4 -1,-4 -4,3 -2,-5 -3,3 -5,0 -4,-1 -3,-3 -4,-2 2,-4 4,1 5,-1 -2,4 5,1 2,-4 3,-3 -4,-2 2,-5 4,2 1,-5 -4,-2 -2,-5 -5,0 -2,5 4,0 -1,5 -5,0 2,4 -5,0 -2,-4 -4,-2 -4,-1 4,-3 5,1 -2,-5 5,0 -2,-4 1,-4 0,-5 -4,1 -2,4 0,4 -3,3 -3,3 -4,-2 2,-4 3,-3 2,-5 0,-5 4,1 5,-2 -2,-4 0,-5 4,1 2,5 0,5 4,-2 2,-4 -3,-3 -1,-5 4,1 3,3 4,2 -3,3 -1,3 -1,4 -3,3 -4,1 -1,5 5,-1 5,2 0,-5 4,2 2,-4 -3,-2 1,-5 4,1 -1,-5 0,-4 2,-4 3,4 3,4 -4,1 2,4 4,0 4,2 4,1 -2,4 1,4 -4,0 2,4 6,0 0,-4 0,-4 5,-1 -4,-3 3,-2 4,-1 1,3 2,4 2,5 -5,-1 -4,0 1,4 -2,4 -3,3 -3,-2 -4,3 -2,-4 -2,-4 -2,-5 3,-4 -3,-1 -4,0 -1,5 2,4 -5,1 -4,3 5,2 5,-1 -1,4 4,1 3,4 2,5 -3,3 -3,-4 -3,-4 -4,-3 -1,5 3,4 -5,1 -2,4 6,1 4,-3 2,4 -3,4 0,5 5,-1 2,-4 2,-5 4,2 -1,4 -2,4 -3,4 2,3 -5,2 -1,-4 -5,0 0,5 -5,-1 -5,-1 -4,-2 -5,0 2,4 4,3 5,0 5,2 5,0 -2,4 0,5 -5,2 0,-5 -3,-3 -6,1 3,5 2,5 -5,0 -3,-2 -1,-4 -1,-4 1,-4 -5,1 -1,6 1,6 3,3 -1,5 5,-1 1,4 -5,2 4,3 0,4 -4,-2 -5,-2 -1,-5 0,-5 -4,-3 2,-5 -5,-1 -2,5 2,4 2,5 1,5 -5,-1 2,5 -4,3 4,2 -2,4 -3,4 4,2 4,2 -1,5 3,3 -3,4 2,3 4,-3 3,-4 4,2 2,-4 4,3 6,2 3,4 2,5 4,-3 -1,-5 5,1 2,5 1,4 -5,1 0,6 4,-2 2,5 -4,2 3,4 -2,4 -3,-3 -2,4 2,4 3,2 -2,4 2,5 4,-5 3,3 -1,4 0,5 -4,4 -2,-5 -5,4 -1,-5 -6,1 1,5 -5,2 -5,3 3,4 6,-1 5,-3 1,5 4,3 4,-3 -3,-5 6,0 3,4 2,5 -4,0 -4,2 -3,4 -4,2 -1,-5 -4,2 -1,-5 -5,1 1,5 -5,0 -2,-5 -2,-5 -2,-5 -2,-4 6,-2 4,-4 -6,-2 -3,-5 0,-6 5,2 2,5 4,-1 5,1 5,-2 -1,-5 -5,1 -2,-5 4,-2 2,-5 -5,0 -4,3 -1,6 -5,-3 -5,-1 2,-4 5,-1 3,-4 4,-2 4,1 4,0 -2,-4 -4,-2 4,-3 -5,-2 -1,-5 -3,-4 -3,5 2,5 1,5 -4,0 -2,5 -5,0 1,-5 -2,-4 5,-1 -1,-5 2,-5 -5,0 -4,2 2,3 -3,4 -3,-4 -5,-2 -3,3 -4,2 -4,-3 -3,-3 -2,-4 2,-4 3,-3 1,4 0,4 4,4 3,-4 -3,-3 4,-2 -4,-3 4,-2 -3,-3 -4,1 -2,-4 -4,0 1,4 -4,1 -2,-3 -3,-4 -3,3 2,4 3,3 4,1 -3,3 -5,1 -1,-4 -3,3 -2,-3 -4,1 2,4 -3,0 0,5 1,4 -1,5 5,-2 0,-4 -1,-3 3,-2 5,1 3,-1 2,3 -4,2 -4,-1 0,4 4,2 3,-2 3,3 2,-4 3,3 4,3 5,-2 5,-2 -1,5 4,-1 4,3 -1,4 -5,-1 -5,1 -2,-4 -4,3 -5,0 0,-4 -4,1 0,4 -4,0 -1,-5 -5,-2 1,5 -4,-1 -2,-3 -4,3 0,5 4,-1 0,4 4,-2 4,1 4,1 2,4 3,-4 5,-1 4,-1 3,2 4,-1 4,1 5,0 -2,5 -5,1 -4,-1 -6,-1 -5,0 2,5 4,0 4,2 6,0 5,-1 -1,5 2,6 3,4 -5,2 -4,4 -4,-3 3,-4 1,-5 -3,-3 -2,5 -3,-4 -4,-3 -5,0 -2,-5 -2,4 -4,2 4,4 3,4 3,-4 3,2 3,4 -1,4 2,4 4,2 5,1 4,-2 3,5 1,5 2,4 -3,3 1,5 4,-3 4,1 4,1 4,-2 1,4 4,-2 -1,6 4,-2 2,-4 3,3 -2,5 -4,2 2,4 4,-1 4,1 2,-4 -3,-2 2,-4 3,2 2,4 -1,4 4,1 1,4 2,5 5,-2 -2,-4 -2,-5 -3,-3 -1,-4 -1,-4 5,1 0,4 4,-2 2,-4 4,-3 2,-5 -2,-4 -2,4 -3,3 -4,2 -3,-3 -1,4 -4,-2 -2,4 -3,-2 -4,-2 4,-3 5,-2 4,-2 5,2 3,-4 -4,-2 -5,-2 4,-3 4,1 5,2 0,-5 5,0 -3,-4 -3,-4 -4,0 0,5 -4,-2 -3,3 -4,2 -2,-4 4,-3 -2,-4 1,-4 0,-5 -2,-4 -4,-3 -4,-2 3,-3 5,2 5,1 1,5 2,4 -1,4 0,5 5,-3 2,-4 -1,-5 4,-1 5,0 1,-5 -2,-4 -2,4 -4,-2 -4,4 -1,-4 -3,-3 -4,-2 -4,1 -3,-3 3,-3 -2,-4 -1,-4 1,-5 -2,-6 4,-3 4,-2 6,-1 1,4 -4,2 -5,2 3,4 5,-2 2,4 -4,3 -6,-1 2,5 1,4 4,2 4,3 5,-1 -2,-5 -5,-2 4,-4 2,-5 -2,-5 1,-6 2,-4 1,-4 0,-4 -5,2 -1,4 -5,-1 1,-4 -5,-1 -1,5 -5,-2 0,5 -4,2 -5,-1 3,-5 -6,1 2,-5 4,-3 3,2 5,-2 -3,-3 -4,-3 -5,2 -3,-4 -2,-4 4,-3 3,4 6,-1 -3,-3 -1,-4 -3,-4 -4,3 -3,3 -2,-5 -3,4 0,5 0,4 3,3 3,4 -5,1 -3,-3 -4,0 -2,4 4,2 4,3 5,-2 -1,5 1,5 -6,-2 -4,-3 -3,-2 -4,-3 -2,4 -5,2 0,-5 3,-3 -4,-2 -4,1 2,-6 0,-5 4,1 1,5 5,2 -1,-5 4,1 4,-2 0,-4 0,-5 2,-4 -2,-4 4,0 4,-3 4,-2 0,5 5,-2 0,-4 5,2 -2,-5 -4,-2 1,-4 1,-5 4,-2 4,2 1,-5 4,2 4,1 4,2 3,3 -2,4 4,1 2,-4 -1,-4 4,-1 1,-4 -4,0 -5,1 -4,-3 4,-2 2,-4 -4,0 -5,0 -2,5 -5,-2 2,-4 2,-4 5,1 -1,-4 -4,-2 -1,-4 -4,-1 0,-5 0,-5 4,2 1,4 3,-4 4,1 -1,4 -2,4 4,3 2,-4 3,-2 -2,-3 0,-5 -4,-2 -4,-1 3,-3 2,-4 4,1 -2,4 4,1 1,4 1,4 1,4 2,4 -4,0 -2,4 -4,3 3,1 4,0 2,-4 3,3 0,4 -4,2 -2,3 4,1 3,-2 1,3 1,4 -2,3 3,1 0,4 -3,0 -3,-1 0,4 -2,3 -2,4 0,4 4,3 4,-1 -2,-4 0,-4 2,-4 3,0 0,4 1,4 1,5 0,5 -5,-1 2,5 4,3 -4,2 -5,1 0,-5 -2,-4 -2,5 -4,3 -4,1 0,-5 -4,1 -2,-5 -2,-5 5,-1 2,5 5,2 2,-5 -4,-2 0,-4 -4,-2 4,-3 -5,-2 -3,-3 3,-3 -5,-2 -4,3 -5,-2 0,4 3,4 5,0 2,5 -4,0 -2,4 -4,2 4,4 3,4 1,5 -4,2 3,3 3,3 2,-5 3,3 0,4 5,1 0,-5 5,-2 0,5 5,2 2,-5 6,-2 -1,5 2,4 -5,1 -4,2 0,6 4,-3 5,-1 0,5 -4,2 4,3 -3,3 -4,1 -1,-4 -4,-2 -1,4 2,5 1,4 -2,4 0,5 3,4 2,-5 1,-5 1,-5 5,-2 0,5 -1,5 1,4 -4,2 4,3 -5,2 4,3 -3,2 3,3 -4,2 3,4 -1,5 -5,1 1,-5 -5,0 -2,5 3,4 3,3 5,-2 -2,5 0,5 -1,4 -4,1 3,4 0,4 -1,4 -1,4 -1,5 -1,4 -4,-5 -1,5 -4,-1 1,5 2,3 4,-1 -1,6 -3,5 -5,2 -1,5 5,-1 -2,6 -2,6 -4,-5 -2,-5 -5,-2 4,-4 -1,-6 -2,-5 -3,3 1,5 -2,4 -3,3 2,4 5,2 0,5 4,2 3,5 -2,6 -2,5 -2,6 -3,-4 -3,3 -2,-5 -2,-6 -4,0 -4,3 -1,-4 -3,-2 -1,5 -1,5 4,1 3,3 3,-5 3,5 -3,5 -2,5 4,3 2,-4 2,-4 5,1 -2,4 -2,5 -2,5 -3,-2 -4,-2 -4,-2 -1,6 5,2 4,2 -3,4 -5,1 0,-4 -5,-1 0,6 -4,-2 -4,0 -4,-2 -1,5 4,2 4,1 4,2 4,-2 5,0 -3,4 -2,5 -4,-2 -3,4 4,1 -1,4 -2,2 -2,-4 -3,0 1,4 -4,0 1,3 4,1 -2,3 -4,0 1,4 -3,3 -2,-4 -1,-3 3,-3 -1,-3 -4,2 0,-4 -3,-1 -1,5 0,4 2,4 3,3 1,4 -3,3 -1,3 -3,4 -3,4 -4,0 0,3 -4,1 2,3 -3,2 -3,4 -4,3 -3,3 -3,-5 -5,0 -5,0 -3,4 5,3 5,-2 2,4 -4,3 -4,5 -2,-5 -5,-3 -3,-5 -4,3 2,5 -5,1 4,6 6,-3 2,5 -5,4 -7,1 3,3 -4,4 -4,-2 0,6 -5,-2 0,5 -4,3 -1,-5 -5,-2 -5,-1 -4,-2 -6,-2 -6,2 3,4 6,0 4,3 4,2 5,-1 0,6 -5,1 -3,4 -3,-6 -5,-4 -1,5 3,4 0,6 -6,3 -5,3 -5,3 -5,3 -2,-5 -2,-5 5,2 5,-2 3,-4 6,-2 -3,-5 1,-5 -3,-4 -3,-4 1,-5 -4,-2 3,-4 4,-1 2,5 3,-3 1,-4 5,4 1,-5 5,3 -2,5 5,0 3,2 4,3 3,-2 -3,-4 -4,-4 -1,-5 -5,0 2,-5 -5,1 1,-5 -2,-5 -4,2 1,4 0,4 -4,2 -5,2 -5,0 0,-5 -5,1 0,5 -1,5 -2,4 -2,3 5,1 -2,4 -4,1 -2,5 -2,4 4,1 5,-2 -2,-4 5,-1 3,4 -1,6 -5,0 1,5 -6,-2 -5,-2 1,5 -2,4 -3,-4 -1,-5 -4,0 0,4 0,4 -4,1 -1,-4 0,-4 1,-4 2,-4 4,-2 -1,5 4,-1 2,-5 2,-4 1,-4 -4,-2 4,-3 3,-3 2,-4 -1,-5 -5,-2 5,-2 -3,-4 -5,1 1,-5 3,-4 4,3 1,-5 5,0 -1,5 -2,5 6,0 1,-5 4,2 1,4 1,4 4,-3 -1,-5 4,-2 2,-4 -6,0 2,-4 -2,-4 -3,-4 -3,3 2,5 0,5 -4,-2 -2,-5 0,-6 -1,-4 5,0 -2,-5 12,-14 6,5 6,2 -3,5 5,2 0,5 5,-1 0,4 -1,4 5,1 -1,4 5,1 -1,5 5,-1 0,7 5,-5 -1,-5 5,1 5,0 2,-5 -5,-1 -4,0 -6,1 -4,-3 -3,-4 3,-3 -4,-2 -4,-3 -2,-5 5,3 5,2 4,3 -1,5 4,2 2,-5 4,3 5,2 5,2 1,5 5,-1 5,1 4,2 3,-4 -3,-3 5,-1 -1,-3 5,-1 -1,-4 4,1 4,-1 2,-4 1,-4 3,-3 -4,-1 -1,-4 -2,-5 -6,-1 2,5 -5,0 2,4 5,1 -3,4 4,2 -3,3 -4,-1 -2,-4 -2,-3 -3,-4 -2,-4 5,-2 -3,-5 -1,-7 5,2 3,4 5,1 5,-1 1,-5 -4,-1 -5,1 1,-4 -5,-1 -4,-4 -5,-3 0,6 -2,4 -3,-4 0,-5 -1,-4 -4,-3 -4,-1 -3,-1 -3,-3 -3,-2 -4,-3 3,6 3,3 3,4 3,4 3,-3 2,4 -2,4 3,4 3,4 4,2 1,5 -14,11 -4,-4 -4,-1 1,-4 -4,-1 -1,4 -4,-3 -4,-2 1,-3 4,1 5,-1 -3,-4 -4,0 1,-5 -3,-4 -4,0 1,-5 -5,-1 1,4 -1,5 5,2 1,4 -5,-1 1,5 -5,-2 -4,-3 4,-2 -2,-4 1,-4 -3,-4 -1,-5 4,2 5,-2 -4,-3 0,-4 -5,1 -4,-3 5,-2 -4,-5 -3,-5 3,-4 3,-4 4,-3 2,-4 5,2 5,2 4,2 4,-2 2,-4 4,-3 4,0 4,1 3,-3 -5,-1 2,-4 -2,-4 4,-1 4,1 -1,4 5,0 2,-4 -2,-4 -4,-2 -1,-4 0,-4 3,-3 3,-4 5,-1 -2,5 -3,4 0,5 5,0 -1,4 5,1 -3,5 2,5 -5,1 3,4 -2,4 -4,-3 -3,-4 -2,4 1,5 4,1 -3,4 -4,-2 -2,-4 -5,-1 -4,0 -3,3 -3,3 4,2 4,2 -1,-5 5,0 1,4 0,4 4,1 1,-4 4,2 -1,5 4,0 2,3 4,0 -1,-4 1,-5 -4,2 -1,-4 3,-3 5,1 -1,-5 5,-1 5,2 5,1 0,5 -5,0 -4,-2 -1,5 -3,3 1,5 -3,3 4,1 4,3 4,-1 2,4 5,2 4,2 0,-4 1,-4 -3,-3 -2,4 -3,-4 -3,-4 -4,3 -2,-5 4,-3 4,1 4,3 5,1 2,3 5,0 -1,4 4,2 1,-4 4,-2 1,-5 0,-5 4,2 2,-4 -4,-3 -6,2 -6,2 4,3 0,4 -5,-1 -4,-3 -1,-4 -4,2 1,-6 6,0 -2,-4 -5,-2 -1,-5 3,-4 4,1 -1,4 6,-2 0,6 1,5 4,-2 0,-5 1,-5 2,-4 -1,-4 -4,-2 0,5 -6,0 1,-5 0,-5 5,0 0,-5 -4,0 -2,-4 -2,-4 2,-4 4,2 1,4 4,2 4,2 -2,4 3,3 -3,2 5,2 -1,4 5,2 1,-4 5,-1 0,5 5,2 1,4 3,3 2,-5 -1,-4 -5,-3 0,-5 -4,-2 -2,-4 -2,5 -4,-1 1,-4 -4,0 2,-5 4,1 4,-2 2,-4 0,-4 0,-4 -5,1 0,4 -1,5 -4,-2 -5,2 -4,-3 5,-2 -1,-4 5,1 0,-5 -5,-1 2,-4 -3,-4 -3,4 -4,-1 2,-4 -4,-2 -4,3 -2,4 -3,3 5,2 2,-4 3,3 4,2 -1,4 -4,-1 -5,0 -4,-1 -4,-2 -4,-2 -3,0 2,-4 3,-3 1,4 4,-3 1,-4 -4,-2 2,-4 1,-5 0,-4 -2,-4 -4,0 0,5 0,5 -1,4 -1,5 -3,2 -5,-1 -2,-3 5,-1 1,-5 1,-5 0,-5 -3,-4 -5,2 -2,5 5,-1 -1,5 0,4 -4,1 -2,-4 -5,-1 2,-5 2,-5 -5,0 -2,5 -3,4 -2,-4 -4,2 -1,-4 3,-4 4,1 0,-5 -5,0 1,-4 4,-2 4,1 2,5 5,-1 5,1 -1,-6 -6,0 -4,-5 -4,0 -6,2 -3,-4 4,-2 4,-2 -4,-3 5,-3 4,-1 -2,-4 -5,-1 -3,4 -2,-3 -4,-2 0,5 -1,4 4,3 -5,2 0,4 -1,3 4,0 2,4 -4,1 -4,-1 0,3 3,3 3,-1 0,4 -4,2 -3,-3 -1,4 -2,4 2,4 -3,2 4,3 -5,2 -2,5 5,-1 0,5 1,5 5,0 5,-1 1,-5 -2,-5 -4,5 -1,-5 2,-5 -2,-5 -1,-4 4,0 2,5 2,4 3,-4 3,3 5,1 4,1 3,4 2,4 -3,2 1,4 4,2 1,-4 3,-2 2,3 -2,4 2,4 3,-2 4,2 4,1 4,1 -2,4 1,4 2,5 -2,5 3,3 -3,4 -5,3 -4,4 1,6 -5,-1 -6,-2 4,-4 -4,-3 3,-4 5,2 0,-6 6,2 0,-5 -4,-3 5,-2 -2,-4 0,-5 -5,-2 -1,4 0,4 -3,4 -2,5 -4,-4 -3,-3 2,-5 4,2 1,-5 -4,-2 2,-3 -5,-1 -4,-2 -2,3 -5,1 1,-5 4,-3 0,-4 2,-4 -5,-2 -5,-1 1,4 3,3 -3,3 -2,5 -5,2 4,3 2,4 -5,-1 -5,-2 -2,-4 -3,4 2,4 1,3 4,-1 4,0 -1,4 0,4 3,3 -4,2 -4,-1 1,-4 -2,-3 -5,-2 -2,-4 -2,-4 -2,-4 4,-1 -2,-4 -2,-5 -3,4 -2,5 1,4 1,3 -5,-2 0,4 -4,4 -2,4 4,3 2,-4 4,-3 3,-3 2,3 -2,3 4,1 4,1 1,4 -3,3 -2,-4 -4,0 -4,-1 -2,4 2,5 3,-4 3,3 -2,4 5,0 4,-3 3,-3 2,4 -3,4 -4,2 -4,1 -2,4 -5,-1 2,-4 -4,-2 -2,4 -4,-2 -4,-1 2,-5 5,1 -1,-4 -2,-3 -4,-2 -2,4 -2,4 -3,4 -2,4 5,-2 1,5 -4,3 -5,-2 -3,4 5,3 -4,4 -5,-2 -3,4 -4,4 -3,4 -4,4 5,2 1,5 5,2 4,0 1,-5 -5,0 -1,-5 2,-4 3,-4 5,2 -4,5 6,0 -1,5 4,4 -4,2 5,4 -3,2 -5,-1 2,5 4,2 4,-2 1,5 -3,3 -5,-2 -5,-2 -1,-5 -4,2 -4,-2 5,-4 -6,-1 -4,3 -4,-2 -2,-4 5,1 -1,-5 -4,-3 -4,4 -4,3 2,3 -5,2 -4,2 4,2 4,2 2,-3 3,-3 3,4 -3,3 -3,3 -2,3 -4,1 1,-5 -4,2 -1,-4 -5,-1 1,4 -5,-1 0,4 -5,0 -4,3 -3,3 -5,3 -4,2 2,5 5,1 2,-5 5,-2 1,-4 4,-2 4,2 1,-4 3,3 2,-4 2,4 -2,3 -4,2 -3,3 -3,-4 -2,5 -5,2 0,5 5,-2 0,4 -2,3 3,4 2,4 4,-3 -2,-5 -1,-4 1,-4 4,-3 2,4 3,-2 3,-3 -4,-2 3,-3 4,1 -1,-4 3,-1 2,3 2,4 -4,2 3,3 4,-1 2,4 3,4 -2,5 -2,5 -3,-4 2,-5 -4,-3 -1,4 -4,-2 0,-5 -4,2 -2,3 -5,-1 1,4 2,4 4,2 1,-5 4,3 0,5 4,-1 0,5 5,-1 0,5 -5,1 -4,2 -1,-4 -2,-3 -4,-2 -3,-3 -4,2 2,4 -3,4 -5,2 -1,-4 4,-2 -4,-3 -2,-4 -3,-4 -2,-4 -3,-3 -4,-1 -4,2 -1,-5 -2,-5 -5,2 1,3 2,4 -2,4 -3,-4 -2,-4 -5,2 -3,2 -4,3 -2,5 -3,-4 -5,2 2,4 1,5 4,-2 1,5 2,5 4,-4 4,-2 0,-4 -5,0 1,-6 4,-4 4,2 -2,4 5,0 -1,5 -1,5 -4,3 -3,4 4,3 3,-3 4,-4 1,-4 2,-4 -1,-4 3,-4 6,-1 4,2 2,4 -4,1 -5,-2 0,5 -2,5 -2,4 -2,4 5,-1 0,4 2,4 5,-2 -2,-4 5,0 -2,-6 -5,0 2,-4 4,-2 4,-2 0,5 0,5 3,4 -2,4 -3,3 0,5 1,4 5,2 0,-4 -1,-5 5,2 2,-3 -4,-3 2,-4 3,-3 5,-2 3,-5 2,4 0,5 -2,5 -3,-4 -3,3 2,5 -2,5 4,1 4,-3 1,5 6,2 -3,4 -4,0 -5,1 1,-4 -4,0 -4,-3 -1,4 -4,2 -4,3 -1,-4 -4,-3 -2,-4 0,-5 -4,1 -1,4 -5,-2 1,-5 -2,-4 -4,-1 1,5 -5,-2 -5,-2 -3,-3 -2,5 1,5 4,-2 0,5 5,-2 4,1 -3,4 5,1 5,1 5,1 2,4 3,3 -5,1 -3,-3 -5,-2 -4,0 2,5 4,1 3,4 6,0 5,-2 5,-1 4,1 0,-4 4,-1 1,5 4,-2 5,-1 -2,4 3,3 -4,2 -4,2 1,-4 -4,1 -2,4 2,4 -2,4 -2,-4 -2,4 1,4 3,2 0,4 1,4 3,3 0,4 1,4 4,-1 4,-2 -4,-3 -1,-4 4,-2 2,4 3,2 3,-4 2,4 1,4 -4,1 -4,2 -3,2 -4,1 -5,0 1,3 -4,2 4,15 1,6 4,-3 2,-5 3,5 3,-4 0,-5 5,4 5,-2 -4,-4 5,-2 5,-3 4,-3 5,-2 4,-3 4,-2 4,4 4,4 -4,2 -5,-3 -4,3 4,4 -5,2 -4,3 0,-7 -4,3 -4,2 3,5 -5,2 -5,2 -5,1 -3,4 -5,0 -3,3 -5,1 -5,2 -4,2 0,-5 4,-3 0,-5 -6,2 -6,2 -4,2 -4,2 -4,1 -5,1 -5,2 -4,1 -5,1 3,4 3,-1 4,-1 4,-1 5,-1 4,-1 5,2 1,-5 5,-2 0,5 -1,4 -4,4 -4,-3 -4,2 -4,-2 -1,4 -4,-2 -1,4 -4,-3 -1,4 -5,-2 0,4 -5,0 -4,2 -5,-1 -2,-4 5,-1 5,-1 3,-3 -3,-3 -4,2 -5,1 -5,0 -2,5 -4,-3 -5,1 4,5 -6,1 -5,0 1,-5 -6,2 -5,0 -3,5 -5,-1 2,-4 -5,0 -2,3 -4,-2 -5,1 2,3 -2,4 -4,1 1,-4 -2,-3 -4,0 1,5 -5,1 1,-4 -3,-1 -4,-1 -4,0 -4,1 -5,-1 2,4 -3,2 -3,-2 -2,-4 -4,1 2,4 -4,0 -2,4 -3,3 5,1 3,-4 5,0 -1,4 5,0 2,-4 3,-2 2,5 3,-4 -2,-4 5,0 2,4 -2,4 5,0 5,-2 4,2 5,-2 4,2 0,-3 1,-4 2,-2 4,2 -2,3 1,3 5,-1 1,-4 5,2 2,-5 5,0 -1,5 6,-2 6,9 1,-10 6,-1 3,-4 3,3 6,11 18,-2 19,-1 19,0 6,-14 15,12 10,-19 13,19 26,-1 -16,-21 15,-14 22,-10 -6,26 16,19 11,-23 3,-24 -5,-22 22,6 1,-24 21,6 21,7 20,-12 18,10 -14,20 -25,8 -22,-8 -13,24 -7,29 32,2 1,-23 27,-3 6,25 33,2 8,-21 -22,-13 23,-12 -6,-20 7,-24 -19,-10 -21,-9 -24,8 -22,-4 14,-20 22,-1 -1,-19 8,-19 17,16 3,21 23,8 -2,-28 2,-26 -22,3 -15,-14 10,-16 14,11 15,-11 -17,-15 17,-8 -14,-12 16,-10 -9,-11 8,-16 1,-21 -14,-7 -3,3 1,5 -4,0 1,5 1,4 -3,3 1,5 -3,2 -2,-4 -2,4 1,5 4,0 -2,5 -2,5 -2,4 -4,0 -4,2 3,3 5,0 -4,6 -4,-3 -3,3 -1,5 4,-2 3,3 -3,4 -1,5 -4,-5 -2,4 2,5 1,5 -5,-1 1,5 -2,4 -2,4 -3,5 -2,5 -3,6 -6,-1 -3,3 5,4 -3,6 -3,-5 -3,4 2,5 -2,5 -4,1 -2,4 6,1 -6,4 -1,5 -5,0 2,8 -7,0 1,-5 -5,-1 -1,4 -4,4 5,4 -6,1 1,5 -6,3 -5,2 3,5 -7,-1 1,6 -5,-2 -1,5 4,4 -6,0 -4,1 2,5 -5,-1 0,5 -5,-3 0,4 -1,5 -4,-1 0,6 -6,1 -3,5 -5,2 -4,5 -5,2 -2,5 -6,3 -2,-5 -4,3 1,5 -6,-1 1,6 -5,-1 -2,5 -5,-3 1,-4 -5,-1 5,-4 5,2 0,-5 4,-2 4,-3 4,-3 6,2 -2,-6 5,-3 1,4 5,-2 -2,-6 4,1 1,-5 4,5 2,-4 -1,-5 6,2 -2,-6 4,1 4,-2 -4,-3 5,-1 0,-4 4,1 0,-5 4,2 0,-5 4,2 2,-4 -2,-3 4,-3 4,-5 5,-5 5,-2 1,-6 4,-5 3,-4 3,-4 5,0 3,-1 4,-2 -4,-3 -4,1 4,-6 4,3 2,-4 -3,-3 3,-4 5,3 0,-5 -2,-3 3,-4 2,-5 4,-5 3,-5 4,4 2,-5 -3,-5 6,0 2,-5 -5,0 2,-5 6,1 -1,-5 -3,-2 2,-4 5,2 -1,-4 -1,-4 2,-4 1,-4 1,-4 3,-3 0,-4 2,-4 2,-3 0,-4 4,-1 1,5 3,-3 0,-4 -2,-3 -4,1 1,-5 4,-2 -3,-3 5,-2 -2,-3 6,-1 -5,-4 4,-2 -3,-4 5,-2 2,-5 -6,1 2,-4 1,-4 4,2 4,2 4,-4 -3,-2 -5,-1 -4,-2 2,-3 0,-4 1,-4 5,-1 0,5 0,5 5,-2 12,0 -12,-7 2,-7 -6,1 -5,1 0,-5 6,-2 6,-2 -5,-4 -6,2 0,-5 2,-4 -1,-4 6,0 1,5 4,3 1,-8 -2,-6 2,-6 -5,1 -2,6 -5,-1 1,-4 0,-4 0,-5 0,-6 4,-3 1,6 1,5 5,-2 0,-6 -1,-5 4,-4 -5,-2 2,-5 0,-5 -2,-4 3,-3 -3,-5 2,-5 -4,-1 -1,4 -1,6 -1,5 1,5 0,5 -1,5 -5,2 1,-7 -1,-6 0,-6 0,-5 3,-3 -4,-2 4,-3 2,-4 -3,-2 -4,3 0,-5 0,-5 -1,-5 4,-3 2,5 0,5 3,3 4,3 10,-6 -11,1 -1,-4 1,-5 -4,-2 2,-4 -1,-5 -5,-2 0,6 -5,2 -1,-5 1,-5 -3,-4 0,-5 5,2 0,-6 -4,-2 -3,1 -1,-5 -2,-6 6,2 -1,-3 -2,-4 -4,0 0,-4 -2,-4 0,-4 2,-4 -5,0 3,-4 -1,-4 -4,2 -1,-5 4,-2 -2,-4 -4,1 -2,-5 -2,-4 -1,-5 3,-5 -2,-4 -4,4 -2,-6 -3,-5 5,-2 0,-5 -4,2 -4,-1 2,-4 -4,-1 2,-5 -5,0 1,-4 -4,-2 3,-2 4,-3 -5,-2 -5,2 -2,-5 5,-2 -4,-3 -5,0 3,-6 -6,1 2,-5 -5,1 2,-4 -2,-4 -3,3 -3,-4 -3,-3 0,-3 -4,-1 0,-4 -4,-1 1,-4 -4,-2 -2,-3 -4,-4 2,-5 -6,0 -1,-5 -4,-1 -4,-5 -4,-4 -3,-3 -4,-2 2,-3 -5,-1 4,-4 -3,-3 -4,3 -4,-2 3,-3 1,-3 -3,-4 -2,3 -2,4 -4,-3 2,-4 -2,-5 -4,4 -4,-3 3,-3 -1,-5 -5,-1 0,6 -5,-3 -3,-2 2,-4 -4,-5 -2,5 -4,-2 -4,-3 5,-3 -5,-2 -5,2 0,-4 -2,-4 -3,4 -3,-3 -5,-1 -1,-5 -4,2 0,-5 0,-4 -5,-1 0,6 -4,-2 -1,-5 -4,2 -1,-4 -4,1 -4,-2 4,-3 -4,-3 -5,0 0,4 -4,-2 -5,-2 -4,-2 -4,-2 4,-3 -4,-2 -4,3 -3,-1 2,-5 -4,-2 -4,0 2,5 -4,0 -4,-2 2,-5 -4,2 -3,2 -4,-2 3,-3 -5,-2 -2,4 -4,-2 -4,0 0,-5 -4,2 -5,0 -3,-4 -4,2 -5,-2 1,-4 5,0 5,-1 4,-2 -1,5 4,0 3,-4 2,4 3,-2 0,6 4,-2 2,-4 3,3 1,4 4,2 0,-5 5,3 4,-5 0,7 5,0 5,1 2,4 4,1 5,-2 0,4 -1,4 0,3 4,1 1,-4 1,-4 4,2 0,5 5,-2 3,3 5,1 5,2 -4,3 4,2 5,-2 4,3 4,2 5,3 -4,3 4,4 5,1 -1,-5 5,0 2,5 2,5 3,-3 2,4 5,2 4,2 3,5 5,-4 0,6 5,2 9,-3 -4,9 4,2 1,5 5,-2 3,5 3,4 4,3 3,4 6,2 -5,4 3,2 3,5 3,-5 4,5 -3,5 5,1 3,6 3,-4 3,4 0,5 -2,4 4,2 3,-5 2,4 -2,5 2,5 3,-3 -1,-4 5,0 0,5 4,2 1,4 -3,-1 -4,-2 -2,3 4,2 0,4 4,-2 -1,4 4,0 3,-5 2,5 -2,4 5,1 -1,4 4,2 2,5 4,4 2,5 5,3 1,6 -4,3 5,2 3,2 -3,4 5,1 4,4 -1,5 -2,5 6,-1 1,5 3,4 1,5 -5,0 0,4 2,5 3,-4 4,1 -2,4 4,2 3,5 -6,-1 2,5 5,2 -4,3 4,3 4,3 -2,5 -4,-3 -1,4 2,4 4,3 2,-4 2,5 -4,3 3,3 3,3 -5,3 5,2 1,5 1,5 -3,4 5,2 13,4 -2,-20 -1,-20 -2,-21 3,-20 -15,-2 -7,-19 21,-4 -13,-14 12,-15 1,-26 -16,7 -7,15 -9,17 -9,-20 -13,-12 4,-16 16,8 13,-15 19,-8 -20,-15 20,-11 -3,-25 -18,14 -23,6 -15,16 19,11 -22,10 -15,-13 -12,-16 19,-10 8,-21 27,-2 -11,-25 24,3 22,3 -3,-27 -4,-28 -24,23 -13,-24 -18,25 -16,-23 -29,1 -13,24 29,5 21,20 -19,12 -2,23 -21,3 -4,-18 3,-20 -24,-2 -20,0 -8,-18 19,-8 11,-23 -28,0 -27,-3 9,18 -4,19 -16,-11 -8,-12 -8,-16 -12,14 -12,-12 -19,-1 -19,-1 -20,-2 5,13 -6,0 -4,-2 -1,4 -2,4 -2,4 -4,-3 -4,1 -4,-2 -4,0 -4,0 -2,-5 2,-4 3,4 5,0 5,1 5,0 2,-4 -5,-1 -4,-11 -1,10 -4,0 -4,-2 -5,-2 -2,5 -2,4 2,4 -5,0 -2,-4 2,-4 2,-4 -4,-1 -5,-1 3,4 -3,4 1,5 -5,-1 -1,-4 2,-4 -3,-4 -5,0 3,4 -4,2 2,5 -5,0 -6,-1 -2,-5 5,0 2,-5 -5,-1 -5,0 -5,0 -3,3 -1,4 6,-1 2,5 -5,0 -7,0 -6,0 2,-3 3,-4 3,-5 -6,1 -3,3 -2,-3 -5,0 -5,0 2,5 4,0 4,3 -3,3 -5,0 -4,-3 -2,4 -6,0 -2,-4 5,0 3,-4 -2,-5 -3,4 -3,-3 -2,4 -4,-3 -5,0 0,6 5,0 2,5 -6,1 -7,1 1,-5 0,-5 -3,-3 -2,5 -4,-3 -6,1 -2,6 6,-1 5,1 -1,4 -6,1 -5,1 -4,-3 -2,4 -3,-3 0,-5 4,-1 3,-4 -6,-1 -5,4 -5,1 -1,6 5,-1 2,5 -5,1 -6,1 -5,1 -6,2 -7,1 -6,0 -4,4 -3,-5 -5,-5 8,-1 7,-1 6,2 0,-5 7,3 1,-5 5,3 1,-5 -6,-12 -22,3 -20,1 -18,5 -18,-7 -3,17 -22,-14 3,22 -6,16 -18,-2 4,-20 -12,-16 -28,2 14,20 5,25 -19,16 -2,-22 -16,-15 -10,-24 -30,1 12,22 -2,25 24,2 3,22 -9,18 -17,-14 -22,-9 -23,-11 16,-24 -11,-28 -28,-1 -30,2 Z"/>
    </g>
</svg>
